<?xml version="1.0" encoding="UTF-8" standalone="no"?>
<svg
   xmlns:dc="http://purl.org/dc/elements/1.1/"
   xmlns:cc="http://creativecommons.org/ns#"
   xmlns:rdf="http://www.w3.org/1999/02/22-rdf-syntax-ns#"
   xmlns:svg="http://www.w3.org/2000/svg"
   xmlns="http://www.w3.org/2000/svg"
   xmlns:sodipodi="http://sodipodi.sourceforge.net/DTD/sodipodi-0.dtd"
   xmlns:inkscape="http://www.inkscape.org/namespaces/inkscape"
   height="24.220371"
   width="123"
   viewBox="-48.6 -15.95 421.2 57.947238"
   version="1.1"
   id="svg6"
   sodipodi:docname="Dropbox_(service)-Logo.wine.svg"
   inkscape:version="0.92.4 (5da689c313, 2019-01-14)">
  <metadata
     id="metadata12">
    <rdf:RDF>
      <cc:Work
         rdf:about="">
        <dc:format>image/svg+xml</dc:format>
        <dc:type
           rdf:resource="http://purl.org/dc/dcmitype/StillImage" />
        <dc:title></dc:title>
      </cc:Work>
    </rdf:RDF>
  </metadata>
  <defs
     id="defs10" />
  <sodipodi:namedview
     pagecolor="#ffffff"
     bordercolor="#666666"
     borderopacity="1"
     objecttolerance="10"
     gridtolerance="10"
     guidetolerance="10"
     inkscape:pageopacity="0"
     inkscape:pageshadow="2"
     inkscape:window-width="1920"
     inkscape:window-height="1057"
     id="namedview8"
     showgrid="false"
     fit-margin-top="0"
     fit-margin-left="0"
     fit-margin-right="0"
     fit-margin-bottom="0"
     inkscape:zoom="2.9268293"
     inkscape:cx="47.307692"
     inkscape:cy="6.9380453"
     inkscape:window-x="-8"
     inkscape:window-y="-8"
     inkscape:window-maximized="1"
     inkscape:current-layer="svg6" />
  <path
     d="M 0.28,-12.846382 -24.16,2.7536176 0.28,18.353618 l -24.44,15.6 -24.44,-15.73 24.44,-15.6000004 -24.44,-15.4699996 24.44,-15.6 z m -24.57,51.74 24.44,-15.6 24.44,15.6 -24.44,15.6 z M 0.28,18.223618 24.72,2.6236176 0.28,-12.846382 l 24.31,-15.6 24.44,15.6 -24.44,15.5999996 24.44,15.6000004 -24.44,15.6 z"
     id="path2"
     inkscape:connector-curvature="0"
     style="fill:#0061ff;stroke-width:1.29999995" />
  <path
     d="M 68.14,-12.846382 H 87.9 c 12.61,0 23.01,7.2799995 23.01,23.92 v 3.51 c 0,16.77 -9.75,24.31 -22.62,24.31 H 68.14 Z m 11.05,9.3599995 V 29.403618 h 8.45 c 7.15,0 11.96,-4.68 11.96,-15.08 v -2.73 C 99.6,1.1936176 94.53,-3.4863825 87.25,-3.4863825 Z m 37.57,0.52 h 8.84 l 1.43,9.7500001 c 1.69,-6.63 5.98,-10.1400001 13.78,-10.1400001 h 2.73 V 7.8236176 h -4.55 c -8.97,0 -11.18,3.1200004 -11.18,11.9600004 v 19.24 H 116.89 V -2.9663825 Z m 28.99,21.8400005 v -1.17 c 0,-14.0400004 8.97,-21.7100005 21.19,-21.7100005 12.48,0 21.19,7.6700001 21.19,21.7100005 v 1.17 c 0,13.78 -8.45,21.19 -21.19,21.19 -13.52,-0.13 -21.19,-7.41 -21.19,-21.19 z m 31.2,-0.13 v -1.04 c 0,-7.8000004 -3.9,-12.4800004 -10.14,-12.4800004 -6.11,0 -10.14,4.29 -10.14,12.4800004 v 1.04 c 0,7.54 3.9,11.83 10.14,11.83 6.24,-0.13 10.14,-4.29 10.14,-11.83 z m 16.9,-21.7100005 h 9.1 l 1.04,7.9300001 c 2.21,-5.33 6.89,-8.9700001 13.78,-8.9700001 10.66,0 17.68,7.6700001 17.68,21.8400005 v 1.17 c 0,13.78 -7.8,21.06 -17.68,21.06 -6.63,0 -11.18,-2.99 -13.39,-7.8 v 21.19 H 193.72 Z M 224.4,18.743618 v -0.91 c 0,-8.3200004 -4.29,-12.4800004 -10.01,-12.4800004 -6.11,0 -10.14,4.6800004 -10.14,12.4800004 v 0.78 c 0,7.41 3.9,12.09 10.01,12.09 6.24,-0.13 10.14,-4.16 10.14,-11.96 z m 27.17,12.48 -0.91,7.67 h -9.36 v -55.9 h 10.66 V 4.4436176 c 2.34,-5.46 7.02,-8.4500001 13.65,-8.4500001 10.01,0.13 17.42,7.0200001 17.42,20.9300005 v 1.3 c 0,13.91 -7.02,21.84 -17.68,21.84 -7.02,-0.13 -11.57,-3.38 -13.78,-8.84 z m 20.28,-13 v -1.04 c 0,-7.6700004 -4.16,-11.9600004 -10.01,-11.9600004 -5.98,0 -10.14,4.8100004 -10.14,12.0900004 v 0.91 c 0,7.8 4.03,12.35 10.01,12.35 6.37,0 10.14,-4.03 10.14,-12.35 z m 15.86,0.65 v -1.17 c 0,-14.0400004 8.97,-21.7100005 21.19,-21.7100005 12.48,0 21.19,7.6700001 21.19,21.7100005 v 1.17 c 0,13.78 -8.58,21.19 -21.19,21.19 -13.52,-0.13 -21.19,-7.41 -21.19,-21.19 z m 31.33,-0.13 v -1.04 c 0,-7.8000004 -3.9,-12.4800004 -10.14,-12.4800004 -6.11,0 -10.14,4.29 -10.14,12.4800004 v 1.04 c 0,7.54 3.9,11.83 10.14,11.83 6.24,-0.13 10.14,-4.29 10.14,-11.83 z m 25.35,-1.56 -14.69,-20.1500005 h 12.61 l 8.45,12.6100001 8.58,-12.6100001 h 12.48 l -14.95,20.0200005 15.73,21.84 h -12.35 l -9.62,-13.91 -9.36,13.91 H 328.4 Z"
     id="path4"
     inkscape:connector-curvature="0"
     style="stroke-width:1.29999995" />
</svg>
