<svg width="635" height="477" viewBox="0 0 635 477" fill="none" xmlns="http://www.w3.org/2000/svg">
<g clip-path="url(#clip0_3101_185)">
<path d="M327.647 476.4C496.867 476.4 634.047 456.522 634.047 432C634.047 407.479 496.867 387.6 327.647 387.6C158.427 387.6 21.2468 407.479 21.2468 432C21.2468 456.522 158.427 476.4 327.647 476.4Z" fill="#F0F0F2"/>
<path d="M591.647 397.1L548.047 374.5L549.547 347.7C549.547 347.7 556.147 347.7 557.347 342.3C558.547 336.9 557.347 323.3 551.947 321.2C546.547 319.1 539.247 317.6 539.247 317.6L529.647 306.5L514.647 287.9L502.547 295.9L526.247 326L525.847 341.7C525.847 341.7 525.647 346.1 529.847 346.7C534.047 347.3 538.847 346.7 538.847 346.7C538.847 346.7 536.647 375.4 537.047 375C537.047 375 527.647 379 519.347 379.8C511.147 380.6 510.147 374 510.147 374L510.947 338C510.947 338 516.547 336 519.747 333.8C522.947 331.6 521.747 328.6 521.747 328.6C522.147 328.5 522.647 328.3 523.047 328.1C508.647 332.6 499.347 330.7 489.147 328.4C489.147 328.8 490.047 336.3 500.847 338.3C500.847 338.3 497.847 369.9 497.847 373.2C497.847 376.5 499.047 386.5 515.347 386.8L458.147 414.8C458.147 414.8 455.447 417.5 457.847 419.6C460.247 421.7 463.247 423.8 470.547 421.4C477.747 419 537.447 387.7 537.447 387.7L538.047 422.1C538.047 422.1 538.647 425.9 541.847 425.9C545.047 425.9 549.247 426.1 549.247 421.2C549.247 416.3 547.747 386.6 547.747 386.6L612.247 421.2C612.247 421.2 617.947 423.9 614.347 424.5C610.747 425.1 561.947 430.8 513.147 429.3C464.347 427.8 377.247 417.6 353.447 411.5C329.647 405.5 304.947 400.7 301.347 402.2C301.347 402.2 314.947 379 319.147 371.8C319.147 371.8 344.547 366.8 372.147 347.4C372.247 347.3 372.447 347.2 372.547 347.2C374.747 346.2 394.047 336.7 411.947 319.4C430.947 301 434.847 281.1 435.147 261.3C435.447 241.4 417.147 204 413.447 195.6C402.347 170 401.447 146.6 403.947 137.9C407.247 126.3 419.947 124.2 423.247 123.9C438.147 135.2 479.747 157.8 490.547 162.2C495.947 164.4 501.147 165.5 505.647 165.5C511.047 165.5 515.247 163.8 517.047 160.9C520.347 155.7 519.747 150.8 515.247 146.3C516.447 146.5 517.847 146.7 519.447 146.9C520.947 147.1 522.847 147.3 524.547 147.3C531.147 147.3 534.847 144.2 535.847 137.7C537.047 129.7 524.947 120.7 506.347 108C504.147 106.5 502.047 105 499.947 103.6C486.647 94.3 471.047 78.3 468.047 75.2C466.547 66 463.747 55 454.847 42.2C447.947 30.1 435.447 23.1 428.047 19.9C421.747 3.5 390.047 1.1 377.947 0.200001C376.447 0.100001 375.047 0 373.647 0C349.547 0 344.647 16.5 343.647 23.4C337.647 23.7 332.447 25.2 327.947 27.8C314.047 35.9 310.147 52.1 309.347 64.3C308.547 75.7 309.247 80.1 309.347 81C310.347 90.1 312.847 97 322.347 104.4C322.347 104.4 317.847 117.2 317.247 128.9C316.647 140.6 317.247 169 306.747 176.2C296.247 183.4 289.247 185.5 261.847 183.4C234.447 181.3 210.747 175.4 182.947 185.5C165.347 191.9 159.347 195.8 157.747 196.9C157.447 197.1 157.147 197.3 156.747 197.4C152.447 198.8 124.347 208.5 101.847 223.7C77.447 240.3 45.247 260.2 38.247 262.9C31.347 265.6 44.847 276.2 55.747 277.7C55.747 277.7 56.647 281.9 32.847 290.1C9.04699 298.2 0.946989 299.4 0.0469888 305.5C-0.853011 311.5 10.847 331.4 63.647 342.9C108.247 352.5 147.747 345.9 147.747 345.9C147.747 345.9 173.647 364.6 220.047 372.4L205.847 432.7C205.847 432.7 203.147 438.7 210.047 440.5C216.947 442.3 241.647 447.1 278.447 449.2C315.247 451.3 317.547 448.9 322.147 446.8C328.747 443.8 321.847 439 321.847 439C321.847 439 332.147 440.2 346.547 439.6C354.347 439.3 361.347 436.3 362.247 431.8C363.147 427.3 343.247 417.9 343.247 417.9C343.247 417.9 378.147 428.7 462.547 435.1C546.947 441.4 583.947 437.2 596.347 435.7C608.747 434.2 629.747 432.4 630.947 424.3C632.047 416.1 591.647 397.1 591.647 397.1ZM293.547 398.4C290.347 403.2 289.747 404.3 289.747 404.3L286.447 404.1C286.447 404.1 293.947 381.1 297.547 376.1C297.547 376.1 304.047 375.9 307.347 374.7C307.447 374.8 296.747 393.6 293.547 398.4ZM266.947 377.9L255.047 416.2L246.647 415.1L256.447 377.4C256.347 377.5 264.347 378.4 266.947 377.9ZM345.847 426.9C345.847 426.9 353.947 430.7 348.247 431.9C342.547 433.1 316.647 434 312.347 433.4C308.147 432.8 299.347 429.5 298.647 430.4C298.247 430.9 297.747 431.4 297.447 431.8C298.647 432.4 299.847 432.9 300.947 433.5C308.647 437.4 310.547 439.2 310.847 440.9C311.147 442.6 308.847 444.8 297.447 444.4C286.047 443.9 238.447 440.6 215.247 434.6L231.247 373.9C231.247 373.9 240.147 375.9 247.647 375.9C247.347 376.4 238.747 403.2 237.447 409C236.047 414.9 234.847 419.1 235.647 419.7C236.447 420.3 241.047 420 245.847 419.7C249.147 419.5 255.747 420.4 262.647 421.7L264.247 420.8C264.247 420.8 275.547 384.9 277.547 378.6C277.547 378.6 284.047 378.4 286.747 378C286.747 378 278.647 399.5 277.547 404.2C276.447 408.9 275.747 411.9 278.647 411.4C281.547 410.9 292.547 409.9 295.647 409C298.847 408.1 304.547 405.7 314.447 410.1C324.347 414.2 345.847 426.9 345.847 426.9Z" fill="#0B2946"/>
<path d="M523.147 328.1C524.947 327.3 526.347 326 526.347 326L502.647 295.9L514.747 287.9L529.747 306.5L530.947 265.6C505.847 269.9 489.547 266.3 481.847 263.4C481.147 279.3 480.347 295.2 480.047 300.8C479.447 312.5 480.647 326.7 489.347 328.5C499.447 330.7 508.747 332.7 523.147 328.1Z" fill="#2F7FFF"/>
<path d="M456.447 63.5999C448.647 44.3999 434.247 29.2999 418.247 23.9999C402.247 18.6999 378.047 14.1999 370.447 32.1999C370.447 32.1999 333.947 95.1999 330.447 109.2C327.147 122.4 326.647 143 326.447 152.6C326.447 152.8 325.747 158.3 325.747 158.5L323.447 168.2C327.047 170.7 341.347 175 360.447 174.8C379.547 174.6 386.147 171.8 392.747 166.6C392.747 165.9 391.747 156.8 392.347 149.7C392.947 142.9 394.747 134 400.147 127.3C410.447 114.5 428.247 114 428.247 114C428.247 114 441.747 115.6 451.147 105.8C460.547 96.0999 464.247 82.7999 456.447 63.5999Z" fill="#016666"/>
<path d="M468.047 116.9C468.047 116.9 481.347 128.7 486.147 132.8C490.947 136.9 511.047 151 511.147 154.1C511.147 154.8 460.647 131 460.647 131C460.647 131 417.447 100.9 417.647 100.1C417.847 99.2999 419.447 93.1999 420.347 92.8999C421.247 92.5999 441.647 93.1999 441.647 93.1999L468.047 116.9Z" fill="#79455B"/>
<path d="M420.247 100.7C423.747 101.2 443.447 108.7 454.947 118.1C466.447 127.5 485.947 141 491.647 143.7C497.347 146.4 511.647 152.4 511.347 154.7C511.047 157 509.247 160.9 496.147 155.6C483.047 150.3 448.947 130 444.147 126.8C439.347 123.6 415.047 106.9 415.047 106.9L420.247 100.7Z" fill="#C8842C"/>
<path d="M381.347 62.8001C386.147 61.9001 400.747 62.0001 411.947 72.9001C423.147 83.8001 425.047 92.4001 422.047 100.1C419.047 107.8 413.147 113.6 401.547 107.4C390.047 101.2 378.947 93.7001 375.347 84.3001C371.847 74.9001 381.347 62.8001 381.347 62.8001Z" fill="#02A484"/>
<path d="M312.547 80.6999C313.647 90.4999 316.347 96.9999 327.747 104.9C332.947 108.5 338.447 111.4 350.347 110.5C362.247 109.6 370.747 101.6 374.747 92.8999C378.747 84.1999 385.447 64.1999 380.547 48.0999C375.647 31.8999 366.647 29.7999 362.247 28.2999C357.847 26.7999 341.947 22.9999 329.947 29.9999C317.947 36.9999 313.547 51.0999 312.547 64.4999C311.747 76.6999 312.547 80.6999 312.547 80.6999Z" fill="#0B2946"/>
<path d="M333.547 37.6999C333.547 37.6999 339.747 33.6999 351.147 36.1999C362.547 38.6999 369.747 46.6999 369.747 56.7999C369.747 66.8999 368.547 84.7999 359.247 93.9999C351.747 101.4 331.747 105.3 323.747 90.0999C315.747 74.8999 335.447 63.6999 335.447 63.6999L333.547 37.6999Z" fill="#1565EA"/>
<path d="M393.747 48.0999C392.147 43.0999 396.247 36.7999 406.647 34.5999C417.047 32.3999 427.647 34.5999 433.247 44.2999C438.847 53.9999 428.347 58.8999 422.247 60.1999C416.247 61.4999 397.647 60.1999 393.747 48.0999Z" fill="#02A484"/>
<path d="M408.147 66.6999C409.047 59.5999 413.747 54.3999 418.347 53.8999C420.447 53.6999 422.147 54.6999 423.447 56.2999C422.847 54.3999 421.947 52.6999 420.647 51.1999C415.647 45.5999 405.747 50.0999 402.847 60.9999C399.847 71.9999 404.047 80.6999 408.347 81.8999C410.347 82.3999 412.147 82.3999 413.647 81.9999C413.347 81.8999 413.047 81.7999 412.647 81.6999C406.147 78.6999 407.747 69.2999 408.147 66.6999Z" fill="#FDFFFF"/>
<path d="M423.347 56.3999C425.147 61.9999 424.247 68.8999 422.147 73.1999C420.147 77.2999 417.447 81.0999 413.547 82.1999" fill="#0B2946"/>
<path d="M422.147 73.1C424.147 68.8 425.047 61.9 423.347 56.3C422.047 54.7 420.347 53.6 418.247 53.9C413.647 54.4 409.047 59.6 408.047 66.7C407.747 69.3 406.147 78.7 412.547 81.8C412.847 82 413.247 82.1 413.547 82.1C417.547 81.1 420.147 77.3 422.147 73.1Z" fill="#0B2946"/>
<path d="M518.747 133.2C515.747 130.3 511.847 127 513.047 125.7C513.747 124.9 515.547 124.7 518.147 125.7C512.647 121.8 505.547 117.1 497.947 111.8C480.847 99.9 460.547 80.9 458.547 79.5C451.647 74.5 450.347 79.8 450.247 82.5C450.147 85.1 450.147 88.4 443.947 91.2C437.747 94 430.647 91.3 426.447 90.7C422.247 90.1 422.547 93.5 424.647 95.2C431.547 100.8 502.547 135.2 517.447 138.2C517.847 138.3 518.347 138.4 518.747 138.4C519.547 137.4 520.947 135.3 518.747 133.2Z" fill="#FFCC34"/>
<path d="M529.047 136.3C529.447 134.3 525.147 130.6 518.147 125.7C515.547 124.7 513.747 124.8 513.047 125.7C511.947 127.1 515.747 130.4 518.747 133.2C520.947 135.3 519.547 137.4 518.647 138.4C526.747 140 528.247 139.7 529.047 136.3Z" fill="#C8842C"/>
<path d="M457.047 96C458.247 99 464.147 102.3 467.347 101.6C470.547 100.9 469.047 97.6 465.047 93.8C461.047 90 454.747 90.1 457.047 96Z" fill="#C8842C"/>
<path d="M358.447 84.4999C352.047 98.9999 341.347 98.4999 332.247 96.1999C322.547 93.7999 320.047 84.2999 319.747 75.2999C319.547 70.3999 321.447 50.4999 327.647 42.1999C333.847 33.9999 345.447 36.0999 348.947 36.9999C352.447 37.8999 365.447 44.3999 363.547 59.9999C361.647 76.5999 360.947 78.9999 358.447 84.4999Z" fill="white"/>
<path d="M326.447 81.1L328.447 73.8C328.447 73.8 337.147 78.4 341.147 76.7C345.147 75 343.347 70.8 338.847 68.9C334.347 67 328.647 63.9 330.947 55C333.247 46.1 339.247 43.4 353.647 48.8L350.947 56.5C350.947 56.5 339.147 50.6 338.047 56.8C337.247 61.5 354.347 62.1 351.247 75.2C347.347 92.1 326.447 81.1 326.447 81.1Z" fill="#1565EA"/>
<path d="M323.447 168.3C323.447 168.3 358.947 184.9 392.747 166.7L395.847 177.4C395.847 177.4 357.247 198.8 320.847 178L323.447 168.3Z" fill="white"/>
<path d="M278.647 367.6C283.947 367.6 289.147 367.3 294.047 366.7C287.847 367.1 281.447 367.4 274.747 367.5C276.147 367.5 277.347 367.6 278.647 367.6Z" fill="#994567"/>
<path d="M416.347 224.1C411.347 213.3 395.847 177.4 395.847 177.4C395.847 177.4 386.847 184.9 362.447 186.7C338.047 188.5 320.847 178 320.847 178C320.847 178 319.447 182.8 312.147 187.8C305.747 192.1 285.447 194.3 278.847 194.3C267.247 194.3 229.447 186.3 200.847 191.7C181.147 195.4 152.347 208 137.847 214.6C123.347 221.2 92.6469 240.7 81.3469 248C70.0469 255.3 54.3469 264.6 54.3469 264.6C57.0469 265.5 65.0469 266.9 69.4469 266.4C73.8469 265.9 80.7469 265.2 82.8469 267.9C83.047 268.2 83.1469 268.5 83.1469 268.8C85.4469 266.8 99.747 257.8 119.947 248.4C141.647 238.4 193.047 218.7 213.947 213.1C234.847 207.5 272.147 197.4 312.747 207.5C353.347 217.5 357.747 232 361.747 237.6C365.747 243.2 364.947 255.7 362.547 263.3C360.147 270.9 361.347 293.8 381.447 290.6C401.547 287.4 400.347 291.8 401.947 294.8C403.747 298.2 403.547 304.6 397.547 311.1C391.947 317.1 385.947 322.8 387.847 326.4C392.247 323.6 396.947 320.2 401.647 316C416.447 302.7 421.547 290.7 425.147 272.9C428.747 255.2 421.447 235.3 416.347 224.1Z" fill="#79465B"/>
<path d="M62.1471 301.3C57.7471 299.5 53.5471 296.7 51.3471 294.3C50.8471 293.8 50.4471 293.2 50.1471 292.6C47.8471 293.2 45.5471 293.8 43.1471 294.4C36.9471 297.1 31.9471 299.1 27.5471 300.4C17.0471 303.6 12.8471 303.3 10.4471 306.7C8.0471 310.1 19.0471 316.6 28.1471 321.2C36.9471 325.6 53.2471 332.1 85.2471 336C91.5471 335.2 93.3471 334.7 101.647 331.2C110.747 327.4 123.447 322.5 126.847 319.6C114.247 316.8 97.1471 312.4 92.0471 311.3C84.8471 309.7 66.5471 303.1 62.1471 301.3Z" fill="white"/>
<path d="M82.2469 288.2C85.6469 289.6 92.6469 290.6 96.1469 290.2C99.5469 289.8 164.247 284.2 181.547 281.6C198.847 279 228.947 274 243.447 267.3C250.847 263.9 272.747 251.2 281.247 248.8C289.647 246.4 305.147 246.6 312.147 246.6C317.647 246.6 324.247 244.4 327.647 244.5C331.547 242.4 334.247 240.2 334.247 234.6C334.247 227.2 312.547 223.2 297.647 222.7C282.747 222.3 260.247 226.3 249.047 229.9C241.347 232.4 226.947 237.1 222.147 236.7C217.347 236.3 232.547 226.3 237.447 223C242.247 219.8 217.747 223.8 195.647 231C173.547 238.2 134.147 257.9 120.947 266.3C108.247 274.4 79.5469 283.6 67.3469 287.5C73.7469 287.6 80.5469 287.5 82.2469 288.2Z" fill="white"/>
<path d="M403.147 292.4C400.747 290.2 398.347 288.4 381.447 290.6C361.247 293.2 360.147 270.9 362.547 263.3C364.947 255.7 365.547 242.4 361.547 236C357.347 229.2 353.347 217.5 312.747 207.5C272.147 197.5 233.147 206.4 212.347 212.3C182.647 220.7 141.647 238.4 119.947 248.5C99.7471 257.9 85.4471 266.9 83.1471 268.9C83.4471 272 76.2471 277.8 66.5471 283.1C63.6471 284.7 60.1471 286.5 56.4471 288.3C54.2471 289.4 51.9471 290.5 49.5471 291.6C47.3471 292.6 45.1471 293.6 43.0471 294.5C45.4471 293.9 47.7471 293.1 50.0471 292.7C58.5471 291 60.9471 290.4 66.8471 288.8C67.2471 288.7 75.8471 286.2 76.3471 286.1C88.5471 282.2 108.047 274.8 120.747 266.7C134.047 258.3 173.347 238.6 195.447 231.4C217.547 224.2 242.047 220.2 237.247 223.4C232.447 226.6 217.147 236.7 221.947 237.1C226.747 237.5 241.147 232.8 248.847 230.3C260.047 226.7 282.547 222.7 297.447 223.1C312.347 223.5 332.747 227.5 333.247 235.2C333.447 239.7 331.347 242.9 327.447 244.9C328.347 244.9 329.047 245.1 329.447 245.6C331.247 247.8 327.847 255 314.547 264.5C301.247 273.9 256.747 303.5 244.047 310.9C231.347 318.3 214.547 321 205.047 320C195.647 319 190.447 320.3 182.147 321.5C175.347 322.5 150.547 323.9 138.147 322.3C135.547 322 131.347 321.1 126.547 320C123.147 322.9 110.447 327.8 101.347 331.6C93.1471 335 91.3471 335.5 84.9471 336.4C85.6471 336.5 86.4471 336.6 87.1471 336.7C120.547 340.6 158.547 335.5 158.547 335.5L155.247 339.1C190.147 357.3 226.847 367.5 274.647 368C281.247 367.8 287.747 367.5 293.947 367.2C335.447 362.6 364.247 340.9 367.747 338.2C370.447 336.1 378.347 333 387.747 326.9C385.847 323.2 391.847 317.6 397.447 311.6C403.547 304.7 405.447 294.5 403.147 292.4Z" fill="#EAC6B6"/>
<path d="M261.347 422.2L262.647 421.5C255.747 420.3 249.147 419.3 245.847 419.5C241.047 419.8 236.347 420.1 235.647 419.5C234.847 418.9 236.147 414.7 237.447 408.8C238.847 402.9 247.347 376.1 247.647 375.7C240.147 375.7 231.247 373.7 231.247 373.7L215.247 434.4C238.447 440.4 286.047 443.7 297.447 444.2C308.847 444.7 311.147 442.4 310.847 440.7C310.547 439 308.547 437.2 300.947 433.3C299.847 432.7 298.747 432.2 297.447 431.6C297.147 431.9 297.047 432.1 297.047 432.1L261.347 422.2Z" fill="#FFCC34"/>
<path d="M295.547 408.8C292.347 409.7 281.347 410.8 278.547 411.2C275.647 411.7 276.447 408.6 277.447 404C278.547 399.3 286.647 377.8 286.647 377.8C283.947 378.3 277.447 378.4 277.447 378.4C275.447 384.7 264.147 420.6 264.147 420.6L262.547 421.5C265.647 422.1 268.847 422.7 271.847 423.3C280.047 425 289.947 428.3 297.447 431.7C297.747 431.4 298.247 430.9 298.647 430.3C299.447 429.4 308.147 432.7 312.347 433.3C316.547 433.9 342.447 433 348.247 431.8C354.047 430.6 345.847 426.8 345.847 426.8C345.847 426.8 324.347 414.1 314.347 409.8C304.447 405.5 298.747 407.9 295.547 408.8Z" fill="#C8842C"/>
<path d="M262.647 421.5L261.347 422.2L297.047 432.1C297.047 432.1 297.247 431.9 297.447 431.6C289.947 428.2 280.047 424.9 271.847 423.2C268.947 422.7 265.747 422.1 262.647 421.5Z" fill="#FFCC34"/>
<path d="M342.647 174.8L341.947 108L350.947 107.4C350.947 107.4 350.147 158.8 350.947 178.5C351.747 198.2 352.747 215.1 352.947 226.3C353.147 237.5 353.347 264.9 348.547 287.4C343.747 309.9 333.647 340.4 328.847 350.9C324.047 361.3 319.047 371.2 319.047 371.2L307.447 374.2C307.447 374.2 320.247 353.5 326.847 333.4C333.447 313.3 338.847 296.2 341.747 274.8C344.147 256.9 344.147 238.8 343.947 225.4C343.747 211.9 342.647 174.8 342.647 174.8Z" fill="#0B2946"/>
<path d="M295.547 408.8C295.547 408.8 282.547 434.4 267.247 446.2C251.847 457.9 229.947 464.5 197.947 458.9C157.347 451.8 118.147 439.9 107.247 434.8C96.3471 429.7 95.5471 426.4 95.8471 423.1C96.1471 419.8 124.447 414.7 145.247 412.3C166.047 409.9 212.747 406.3 212.747 406.3L209.647 416.5C209.647 416.5 166.247 417.4 148.147 420.1C130.047 422.8 110.047 425.4 111.947 426.9C115.547 429.7 133.047 435.8 156.547 441C180.047 446.2 212.847 452.5 225.247 451C237.647 449.5 255.747 449.3 268.747 434.8C281.747 420.3 285.647 409.8 285.647 409.8L295.547 408.8Z" fill="#0B2946"/>
<path d="M530.847 265.4L532.047 222.6C532.047 222.6 531.747 207.2 512.447 206.3C495.847 205.5 483.247 206.3 483.247 224.1C483.247 227.7 482.447 245.5 481.647 263.2C489.447 266.2 505.647 269.7 530.847 265.4Z" fill="#0B2946"/>
<path d="M505.447 296.8C511.853 296.8 517.047 291.607 517.047 285.2C517.047 278.794 511.853 273.6 505.447 273.6C499.04 273.6 493.847 278.794 493.847 285.2C493.847 291.607 499.04 296.8 505.447 296.8Z" fill="white"/>
<path d="M188.847 280.2C207.347 277.7 228.647 273.9 241.247 267.8C253.947 261.8 273.147 248.5 285.247 247.3C297.347 246.1 311.747 247 319.247 245.5C326.747 244 335.547 241.6 327.647 252.1C319.847 262.6 287.547 287 268.947 297C249.747 307.2 243.047 316.6 224.947 320.8C209.547 324.4 196.647 320.8 183.347 323.2C170.047 325.6 141.447 323.8 109.247 316C77.0471 308.2 60.5471 303.7 49.5471 292.5L69.1471 286.5C69.2471 286.5 114.747 290.1 188.847 280.2Z" fill="#79465B"/>
</g>
<defs>
<clipPath id="clip0_3101_185">
<rect width="635" height="477" fill="white"/>
</clipPath>
</defs>
</svg>
