<svg width="24" height="24" viewBox="0 0 24 24" fill="none" xmlns="http://www.w3.org/2000/svg">
<rect x="0.000244141" width="24" height="24" rx="12" fill="#175FFF"/>
<path d="M15.5767 7C14.8031 7 13.9969 7.47712 13.512 7.94314C12.7248 8.60334 10.1235 12.6588 10.1235 12.6588V12.6727C9.85217 13.0627 9.46605 13.3546 9.02101 13.5063C8.57597 13.658 8.09508 13.6616 7.64789 13.5166C7.20071 13.3716 6.8104 13.0855 6.53343 12.6997C6.25646 12.3138 6.10718 11.8483 6.10718 11.3703C6.10718 10.8924 6.25646 10.4269 6.53343 10.041C6.8104 9.65519 7.20071 9.36908 7.64789 9.22408C8.09508 9.07907 8.57597 9.08268 9.02101 9.23439C9.46605 9.38609 9.85217 9.67803 10.1235 10.068L11.2321 8.29266C10.7206 7.80471 10.0995 7.45166 9.42315 7.26432C8.7468 7.07698 8.03571 7.06104 7.35192 7.21788C6.66813 7.37472 6.03242 7.69959 5.50025 8.16413C4.96807 8.62868 4.55561 9.21879 4.29884 9.88297C4.04208 10.5472 3.94881 11.2652 4.02718 11.9746C4.10555 12.6839 4.35317 13.3629 4.74844 13.9524C5.14371 14.5419 5.67462 15.0239 6.29486 15.3564C6.91509 15.6889 7.60579 15.8618 8.30671 15.86C8.88351 15.8779 9.45641 15.758 9.97954 15.5099C10.5027 15.2618 10.9615 14.8925 11.3193 14.4314C11.3193 14.4314 12.7139 12.4702 13.2805 11.5409C13.7953 10.7088 14.37 9.24412 15.6203 9.24412C15.92 9.24316 16.2168 9.30387 16.4929 9.4226C16.769 9.54133 17.0187 9.71563 17.227 9.93505C17.4354 10.1545 17.598 10.4145 17.7053 10.6995C17.8125 10.9845 17.8621 11.2886 17.8511 11.5936C17.8635 12.224 17.6299 12.8335 17.2014 13.2886C16.773 13.7437 16.1847 14.007 15.5658 14.0208C15.2528 14.0174 14.944 13.9473 14.6592 13.8149C14.3745 13.6826 14.1201 13.491 13.9124 13.2525L12.8229 15.0056C13.471 15.5376 14.2537 15.8719 15.0805 15.9699C15.9073 16.0679 16.7445 15.9256 17.4952 15.5594C18.2459 15.1932 18.8796 14.6182 19.3229 13.9007C19.7662 13.1832 20.001 12.3526 20.0002 11.5049C19.9981 10.3108 19.5313 9.16623 18.7022 8.32188C17.8731 7.47753 16.7492 7.0022 15.5767 7Z" fill="white"/>
</svg>
