<svg width="24" height="24" viewBox="0 0 24 24" fill="none" xmlns="http://www.w3.org/2000/svg">
<rect x="0.000244141" width="24" height="24" rx="12" fill="white"/>
<path d="M18.9057 13.0877C18.7528 12.9794 18.5999 12.862 18.4555 12.7537C17.521 12.0587 16.4167 10.8581 16.2043 10.6235C16.0939 9.93745 15.8985 9.10701 15.2784 8.15022C14.7941 7.24758 13.9192 6.72405 13.3925 6.48033C12.9422 5.25274 10.7165 5.07221 9.85854 5.00903C9.75662 5 9.65467 5 9.55272 5C7.85374 5 7.50544 6.23662 7.43748 6.75113C7.01273 6.77821 6.64745 6.88652 6.33314 7.07608C5.35621 7.68085 5.08437 8.89942 5.02491 9.81108C4.97394 10.6596 5.01641 10.9935 5.02491 11.0567C5.09287 11.7427 5.27126 12.2573 5.94236 12.8169C5.50063 14.9381 5.33922 17.4113 5.33073 17.4384L5.32223 17.5016L5.35621 17.5558C5.39019 17.6099 6.29915 18.8646 8.29549 18.991C8.38044 19 8.47386 19 8.55881 19C10.742 19 11.5406 17.2037 11.5746 17.1315L11.6085 17.0593L11.583 16.9871C11.583 16.9871 11.3877 16.4184 11.685 15.3714C11.9313 14.5048 12.8063 14.3514 13.0357 14.3333C14.0891 15.1818 17.0198 16.8066 17.7844 17.1315C18.1667 17.294 18.5319 17.3843 18.8548 17.3843C19.237 17.3843 19.5258 17.2579 19.6618 17.0412C19.8911 16.6531 19.8487 16.283 19.5343 15.949C19.6193 15.9671 19.7212 15.9761 19.8317 15.9942C19.9336 16.0122 20.0695 16.0213 20.197 16.0213C20.6642 16.0213 20.9275 15.7866 20.9955 15.2991C21.0719 14.7124 20.2224 14.0355 18.9057 13.0877ZM8.56731 18.8285C8.55881 18.8285 8.55881 18.8285 8.55034 18.8285C8.58431 18.8285 8.61828 18.8285 8.66076 18.8285C8.62678 18.8285 8.60128 18.8285 8.56731 18.8285ZM9.51875 5.18955C9.52725 5.18955 9.54425 5.18955 9.55272 5.18955C9.57822 5.18955 9.5952 5.18955 9.6207 5.18955C9.5952 5.18955 9.55272 5.18053 9.51875 5.18955ZM10.6996 5.28885C10.8185 5.3069 10.9459 5.32495 11.0733 5.343C10.9459 5.32495 10.8185 5.29787 10.6996 5.28885Z" fill="#0B2946"/>
<path d="M18.4111 12.9076C17.3492 12.1223 16.1004 10.7142 16.1004 10.7142C15.99 9.99208 15.8031 9.19777 15.1915 8.25901C14.6988 7.33832 13.7728 6.83284 13.3141 6.62523C12.9743 5.45179 10.7486 5.26224 9.90759 5.19905C7.60545 5.01853 7.64792 7.01337 7.64792 7.01337L6.82391 9.91085L6.20378 12.709C5.72806 14.8754 5.56665 17.4569 5.56665 17.4569C5.56665 17.4569 6.43314 18.6935 8.37848 18.8199C10.6721 18.9644 11.4876 17.0598 11.4876 17.0598C11.4876 17.0598 11.2668 16.455 11.5896 15.3267C11.9124 14.1984 13.1612 14.1533 13.1612 14.1533C14.1721 14.9927 17.1708 16.6536 17.9184 16.9695C18.8018 17.3486 19.422 17.2223 19.5834 16.9514C19.7448 16.6807 19.8127 16.3377 19.3285 15.9405C19.0142 15.6878 18.8273 15.5524 18.8273 15.5524C19.1841 15.6426 19.2266 15.7329 19.9232 15.8232C20.4159 15.8864 20.8066 15.8864 20.8916 15.2906C20.9596 14.6768 19.5324 13.7381 18.4111 12.9076Z" fill="#0B2946"/>
<path d="M8.60774 17.2684C7.26553 17.2232 6.48399 16.7358 6.22064 16.5463L6.1272 17.2503C6.1272 17.2503 7.15509 18.2793 8.51429 18.2793C8.99851 18.2793 9.94995 18.3335 10.8844 17.0337C10.8844 17.0337 10.8504 16.7629 10.8674 16.3838C10.5276 16.7358 10.0264 17.3135 8.60774 17.2684Z" fill="#FEFFFF"/>
<path d="M6.12717 16.4732C6.12717 16.4732 6.16136 16.5004 6.2212 16.5459L6.22975 16.4641L6.12717 16.4732Z" fill="#0B2946"/>
<path d="M11.0298 16.2197L10.876 16.2288C10.876 16.2833 10.8674 16.3287 10.8674 16.3832C10.9273 16.3196 10.9786 16.2651 11.0298 16.2197Z" fill="#0B2946"/>
<path d="M15.3946 9.76664C14.8425 8.33146 13.8316 7.19412 12.7017 6.80598C11.5719 6.41784 9.86439 6.06581 9.33772 7.41978C9.33772 7.41978 6.84018 12.0233 6.67878 13.1064L6.23704 16.4642L6.22855 16.5455C6.4834 16.735 7.27343 17.2225 8.61562 17.2676C10.0343 17.3127 10.544 16.735 10.8753 16.374C10.8753 16.3289 10.8838 16.2747 10.8838 16.2206C10.9263 15.706 11.0537 15.0471 11.436 14.5416C12.158 13.5848 13.4153 13.5487 13.4153 13.5487C13.4153 13.5487 14.3667 13.6661 15.0294 12.9349C15.692 12.2038 15.9383 11.2109 15.3946 9.76664Z" fill="#016666"/>
<path d="M16.2133 13.755C16.2133 13.755 17.1478 14.6396 17.4876 14.9465C17.8274 15.2534 19.2461 16.3095 19.2546 16.5442C19.2546 16.5983 15.6951 14.8111 15.6951 14.8111C15.6951 14.8111 12.6455 12.5635 12.6624 12.5003C12.6794 12.4371 12.7898 11.9858 12.8578 11.9588C12.9258 11.9317 14.3614 11.9858 14.3614 11.9858L16.2133 13.755Z" fill="#79455B"/>
<path d="M12.8356 12.5466C13.082 12.5827 14.4752 13.1424 15.2822 13.8464C16.0977 14.5505 17.4654 15.5614 17.8647 15.76C18.2639 15.9676 19.2748 16.41 19.2493 16.5814C19.2239 16.7529 19.105 17.0418 18.179 16.6536C17.253 16.2565 14.8489 14.74 14.5091 14.4963C14.1693 14.2526 12.4534 13.007 12.4534 13.007L12.8356 12.5466Z" fill="#C8842C"/>
<path d="M10.1063 9.71178C10.4461 9.63955 11.474 9.64859 12.264 10.461C13.0541 11.2734 13.19 11.9233 12.9691 12.5009C12.7482 13.0786 12.3405 13.5119 11.525 13.0516C10.7094 12.5912 9.92792 12.0225 9.68154 11.3185C9.43519 10.6144 10.1063 9.71178 10.1063 9.71178Z" fill="#02A484"/>
<path d="M5.25399 11.0493C5.33045 11.7804 5.52583 12.2679 6.32436 12.8636C6.68964 13.1344 7.08041 13.351 7.91292 13.2788C8.75392 13.2066 9.34856 12.6108 9.62891 11.961C9.90923 11.3111 10.385 9.81265 10.0367 8.60313C9.69686 7.39358 9.05974 7.23111 8.74542 7.12279C8.43113 7.00544 7.31827 6.72562 6.46877 7.24916C5.61928 7.77269 5.30496 8.83782 5.2455 9.83975C5.19453 10.7514 5.25399 11.0493 5.25399 11.0493Z" fill="#0B2946"/>
<path d="M6.73019 7.82485C6.73019 7.82485 7.16344 7.52698 7.97046 7.70751C8.77747 7.88803 9.2787 8.50183 9.2787 9.25104C9.2787 10.0002 9.19375 11.3542 8.53963 12.0402C8.00444 12.5998 6.60277 12.8887 6.0421 11.7513C5.48143 10.614 6.86611 9.77455 6.86611 9.77455L6.73019 7.82485Z" fill="#2D9BDA"/>
<path d="M10.9703 8.60174C10.8599 8.23165 11.1487 7.75325 11.8793 7.59078C12.6098 7.4283 13.3659 7.59078 13.7567 8.32192C14.1474 9.05306 13.4084 9.41411 12.9836 9.51341C12.5589 9.6127 11.2421 9.51341 10.9703 8.60174Z" fill="#02A484"/>
<path d="M11.9895 10.001C12.0574 9.46842 12.3802 9.08027 12.703 9.04417C12.8559 9.02613 12.9749 9.10736 13.0598 9.22469C13.0173 9.08027 12.9494 8.9539 12.8644 8.84561C12.5076 8.43039 11.8196 8.76434 11.6072 9.58575C11.3948 10.4071 11.6921 11.0661 11.998 11.1564C12.1424 11.2015 12.2613 11.1925 12.3717 11.1654C12.3463 11.1564 12.3293 11.1564 12.3038 11.1383C11.845 10.8946 11.964 10.1996 11.9895 10.001Z" fill="#FDFFFF"/>
<path d="M13.0621 9.22485C13.1895 9.64007 13.1215 10.1636 12.9771 10.4795C12.8327 10.7864 12.6458 11.0753 12.3655 11.1565" fill="#0B2946"/>
<path d="M12.9771 10.4807C13.1215 10.1648 13.181 9.64123 13.062 9.22601C12.9771 9.10868 12.8497 9.02742 12.7052 9.04548C12.3824 9.08158 12.0511 9.46973 11.9917 10.0023C11.9662 10.2009 11.8557 10.9049 12.306 11.1306C12.3315 11.1396 12.3484 11.1486 12.3739 11.1577C12.6543 11.0764 12.8412 10.7876 12.9771 10.4807Z" fill="#0B2946"/>
<path d="M19.7891 14.9826C19.5767 14.7659 19.3049 14.5222 19.3898 14.4139C19.4408 14.3507 19.5682 14.3417 19.7551 14.4139C19.3644 14.125 18.8632 13.773 18.328 13.3758C17.1217 12.4822 15.6945 11.0651 15.5501 10.9568C15.0574 10.5777 14.9725 10.9838 14.964 11.1824C14.9555 11.381 14.9555 11.6247 14.5222 11.8323C14.089 12.0399 13.5878 11.8413 13.2905 11.7962C12.9931 11.7511 13.0186 12.0038 13.163 12.1302C13.6472 12.5454 18.6508 15.127 19.7042 15.3526C19.7381 15.3616 19.7636 15.3616 19.7976 15.3707C19.8401 15.2985 19.942 15.136 19.7891 14.9826Z" fill="#FFCC34"/>
<path d="M20.5104 15.21C20.5445 15.0656 20.2301 14.7858 19.7459 14.4157C19.559 14.3345 19.4316 14.3525 19.3806 14.4157C19.3042 14.515 19.576 14.7677 19.7799 14.9844C19.9328 15.1378 19.8394 15.3003 19.7714 15.3725C20.3491 15.4898 20.4595 15.4628 20.5104 15.21Z" fill="#C8842C"/>
<path d="M15.4353 12.1948C15.5202 12.4204 15.9365 12.6642 16.1573 12.61C16.3867 12.5558 16.2763 12.3121 15.9959 12.0233C15.7156 11.7435 15.2739 11.7525 15.4353 12.1948Z" fill="#C8842C"/>
<path d="M7.32056 13.1416L7.37153 18.1422L7.94918 18.3318L7.87273 13.1416H7.32056Z" fill="#0B2946"/>
<path d="M8.48793 11.3267C8.03771 12.4099 7.28166 12.3738 6.63604 12.2023C5.95644 12.0218 5.77804 11.3087 5.75256 10.6407C5.74406 10.2797 5.87149 8.78131 6.31323 8.1675C6.75497 7.5537 7.57049 7.70715 7.81684 7.77936C8.06319 7.85157 8.98066 8.32996 8.84473 9.50341C8.70881 10.74 8.65783 10.9206 8.48793 11.3267Z" fill="white"/>
<path d="M6.22855 11.084L6.37296 10.5424C6.37296 10.5424 6.9846 10.8854 7.27343 10.759C7.55377 10.6326 7.42634 10.3167 7.11202 10.1813C6.79771 10.0369 6.38995 9.81124 6.55136 9.1433C6.71276 8.47533 7.13751 8.27677 8.15691 8.68295L7.97002 9.26063C7.97002 9.26063 7.13751 8.81835 7.06106 9.28773C7.01009 9.63975 8.20789 9.68488 7.9955 10.6687C7.69818 11.9054 6.22855 11.084 6.22855 11.084Z" fill="#2D9BDA"/>
</svg>
