<svg width="24" height="24" viewBox="0 0 24 24" fill="none" xmlns="http://www.w3.org/2000/svg">
<rect x="0.000244141" width="24" height="24" rx="12" fill="#175FFF"/>
<path fill-rule="evenodd" clip-rule="evenodd" d="M13.9374 6.4333C13.9161 7.28629 13.3203 8.50181 12.3204 8.50181C11.7034 8.50181 11.1927 7.99001 11.1927 7.37159V7.35027C11.1714 6.348 10.7246 5.47368 10.0225 4.85526C9.49062 4.40744 8.83106 4.10889 8.10767 4.02359C8.72468 3.38385 9.597 3 10.5544 3C11.7672 3 12.8735 3.70372 13.5118 4.72731C13.8097 5.23911 13.9586 5.85753 13.9374 6.4333ZM9.97671 6.51824C10.5086 7.20063 10.8278 8.50145 10.0618 9.14119C9.57246 9.54636 8.87035 9.48239 8.4661 9.01324C7.80653 8.26687 6.89165 7.88303 5.97678 7.8617C5.27466 7.84038 4.57254 8.05362 3.97681 8.4588C4.04064 7.58448 4.44488 6.71016 5.18955 6.09174C6.14699 5.30272 7.48739 5.06815 8.63631 5.53729C9.16821 5.72922 9.63629 6.07041 9.97671 6.51824ZM8.76781 11.0825C8.93802 10.1016 7.83166 9.29123 7.00188 9.12063C6.46998 9.01401 5.87424 9.05666 5.34234 9.22725C4.15086 9.63243 3.27854 10.656 3.0445 11.8715C2.89556 12.8312 3.1296 13.7481 3.64023 14.4732C3.83172 13.7694 4.25725 13.151 4.78915 12.7245C5.49127 12.1488 6.4487 11.8502 7.42741 11.9995H7.44869C8.0657 12.1061 8.66143 11.7009 8.76781 11.0825ZM6.3852 13.0444C7.12987 12.6393 8.49156 12.554 8.98091 13.407C9.30005 13.9401 9.10857 14.6438 8.57666 14.9637C7.72561 15.4755 7.1937 16.3071 7.00222 17.2241C6.87456 17.9065 6.93839 18.6315 7.25753 19.2926C6.40648 19.0794 5.61926 18.5249 5.15118 17.6932C4.53417 16.6057 4.55545 15.2622 5.19373 14.196C5.4916 13.7055 5.89585 13.3003 6.3852 13.0444ZM10.6413 15.0485C9.72641 14.7073 8.7477 15.6456 8.42856 16.4346C8.23707 16.9464 8.17324 17.5221 8.23707 18.0766C8.42856 19.3134 9.27961 20.3584 10.4498 20.7849C11.3434 21.126 12.2796 21.0407 13.0881 20.6569C12.4285 20.337 11.9179 19.8466 11.5774 19.2281C11.1306 18.4178 11.003 17.4368 11.3221 16.4986C11.5349 15.9228 11.237 15.2617 10.6413 15.0485ZM12.1735 17.714C11.8969 16.9036 12.0459 15.5602 12.982 15.219C13.5778 15.0057 14.216 15.3043 14.4288 15.9014C14.7905 16.8183 15.5139 17.5007 16.3862 17.8419C17.0245 18.0978 17.7692 18.1405 18.4713 17.9699C18.1096 18.7802 17.4288 19.4413 16.5352 19.7825C15.365 20.209 14.0246 19.9531 13.1097 19.1214C12.6842 18.7162 12.3437 18.2471 12.1735 17.714ZM14.8965 13.8542C14.3859 14.7072 15.1519 15.8374 15.8752 16.2852C16.3221 16.5838 16.8965 16.7331 17.4922 16.7331C18.7263 16.7757 19.9177 16.1146 20.5348 15.0271C21.0241 14.1954 21.1092 13.2571 20.8752 12.4041C20.4496 13.0012 19.8539 13.4277 19.1943 13.6623C18.3007 13.9608 17.322 13.8969 16.4497 13.4277C15.8965 13.1292 15.2157 13.3211 14.8965 13.8542ZM17.7874 12.8095C16.9363 12.9374 15.6385 12.5536 15.4682 11.5726C15.3406 10.9755 15.7661 10.3784 16.3831 10.2718H16.4044C17.3831 10.0799 18.1703 9.48279 18.6384 8.69377C19.0001 8.09667 19.1703 7.39295 19.1065 6.66791C19.8299 7.15838 20.3831 7.9474 20.532 8.88569C20.7448 10.1012 20.2554 11.3807 19.298 12.1484C18.8512 12.4896 18.3193 12.7455 17.7874 12.8095ZM14.4497 9.48267C15.2157 10.1224 16.4497 9.56797 17.0241 8.92823C17.3858 8.52305 17.6412 7.98993 17.7475 7.43549C18.0028 6.21997 17.556 4.91916 16.5986 4.13014C15.8539 3.51172 14.9391 3.25582 14.0667 3.34112C14.5774 3.87424 14.8965 4.53531 15.0029 5.2177C15.1518 6.13467 14.9178 7.11561 14.3008 7.88331C13.8965 8.37378 13.9604 9.0775 14.4497 9.48267Z" fill="white"/>
</svg>
