<svg width="694" height="103" viewBox="0 0 694 103" fill="none" xmlns="http://www.w3.org/2000/svg">
<g clip-path="url(#clip0_2898_81238)">
<rect x="100" width="100" height="100" rx="50" transform="rotate(90 100 0)" fill="#148370"/>
<path d="M-73.7086 -7.94619C-66.2786 -7.94619 -62.1731 -5.37594 -58.8753 -3.32747C-56.0983 -1.58821 -53.9087 -0.216116 -48.962 -0.216115C-44.0154 -0.216114 -41.8324 -1.5882 -39.0554 -3.32747C-35.7576 -5.39526 -31.6521 -7.94619 -24.2221 -7.94619C-16.7921 -7.94619 -12.6866 -5.37594 -9.38879 -3.32747C-6.61172 -1.5882 -4.42211 -0.216108 0.517862 -0.216107C5.45784 -0.216106 7.64745 -1.5882 10.4245 -3.32746C13.7223 -5.39526 17.8278 -7.94618 25.2645 -7.94618C32.7011 -7.94618 36.8 -5.37593 40.0978 -3.32746C42.8748 -1.58819 45.0644 -0.2161 50.0044 -0.216099C53.903 -0.216098 56.0459 -1.10506 57.7815 -2.05199L57.9484 -2.14862C58.1954 -2.28389 58.4357 -2.41917 58.6694 -2.55444L58.8229 -2.65107C59.13 -2.82499 59.4237 -3.01825 59.7241 -3.2115C60.0179 -3.38543 60.3116 -3.57868 60.6053 -3.75261C60.8724 -3.92654 61.1394 -4.08114 61.4198 -4.23574C64.6575 -6.16826 68.516 -7.94617 74.7443 -7.94617C82.181 -7.94617 86.2865 -5.37592 89.5843 -3.32745C92.3614 -1.58818 94.551 -0.216092 99.491 -0.216091C104.431 -0.21609 106.621 -1.58818 109.398 -3.32745C112.695 -5.39524 116.801 -7.94616 124.231 -7.94616C131.661 -7.94616 135.766 -5.37591 139.064 -3.32744C141.841 -1.58817 144.031 -0.216084 148.971 -0.216083C153.911 -0.216082 156.1 -1.58817 158.877 -3.32744C162.175 -5.39523 166.281 -7.94616 173.711 -7.94615C181.141 -7.94615 185.246 -5.3759 188.544 -3.32743C191.321 -1.58817 193.511 -0.216076 198.451 -0.216075L198.451 67.4221C191.021 67.4221 186.915 64.8518 183.617 62.8034C180.84 61.0641 178.651 59.692 173.711 59.692C168.771 59.692 166.581 61.0641 163.804 62.8034C160.506 64.8712 156.401 67.4221 148.971 67.4221C141.541 67.4221 137.435 64.8518 134.138 62.8034C131.36 61.0641 129.171 59.692 124.231 59.692C119.291 59.692 117.101 61.0641 114.324 62.8033C111.026 64.8711 106.921 67.4221 99.491 67.4221C92.061 67.4221 87.9554 64.8518 84.6577 62.8033C81.8806 61.0641 79.691 59.692 74.7443 59.692C70.3584 59.692 68.1421 60.8128 66.0794 62.0497L64.6374 62.9386C64.297 63.1512 63.9565 63.3638 63.616 63.5763C63.1154 63.8855 62.6013 64.1948 62.074 64.4653C59.5172 65.8567 55.8389 67.4414 50.0111 67.4414C42.5811 67.4414 38.4756 64.8711 35.1778 62.8227C32.4007 61.0834 30.2111 59.7113 25.2711 59.7113C20.3312 59.7113 18.1349 61.0834 15.3578 62.8227C12.06 64.8905 7.95451 67.4414 0.524521 67.4414C-6.90547 67.4414 -11.011 64.8711 -14.3088 62.8227C-17.0858 61.0834 -19.2754 59.7113 -24.2154 59.7113C-29.1554 59.7113 -31.345 61.0834 -34.1221 62.8226C-37.4198 64.8904 -41.5254 67.4414 -48.9553 67.4414C-56.3853 67.4414 -60.4975 64.8711 -63.7953 62.8226C-66.5724 61.0834 -68.762 59.7113 -73.702 59.7113C-78.6419 59.7113 -80.8315 61.0834 -83.6086 62.8226C-86.9064 64.8904 -91.0119 67.4414 -98.4486 67.4414L-98.4486 -0.196801C-93.5086 -0.1968 -91.3123 -1.56888 -88.5352 -3.30815C-85.2375 -5.37594 -81.1319 -7.92687 -73.702 -7.92687L-73.7086 -7.94619Z" fill="#8BC2B9"/>
<path d="M-73.7086 -36.2405C-66.2786 -36.2405 -62.1731 -33.7231 -58.8753 -31.7168C-56.0983 -30.0133 -53.9087 -28.6694 -48.962 -28.6694C-44.0153 -28.6694 -41.8324 -30.0133 -39.0553 -31.7168C-35.7576 -33.7421 -31.6521 -36.2405 -24.2221 -36.2405C-16.7921 -36.2405 -12.6866 -33.7231 -9.38879 -31.7168C-6.61172 -30.0133 -4.42211 -28.6694 0.517864 -28.6694C5.45784 -28.6694 7.64745 -30.0133 10.4245 -31.7168C13.7223 -33.7421 17.8278 -36.2405 25.2645 -36.2405C32.7011 -36.2405 36.8 -33.7231 40.0978 -31.7168C42.8748 -30.0133 45.0644 -28.6694 50.0044 -28.6694C53.903 -28.6694 56.0459 -29.5401 57.7815 -30.4676L57.9484 -30.5622C58.1954 -30.6947 58.4357 -30.8272 58.6694 -30.9597L58.8229 -31.0543C59.13 -31.2247 59.4237 -31.4139 59.7241 -31.6032C60.0179 -31.7736 60.3116 -31.9628 60.6053 -32.1332C60.8724 -32.3035 61.1394 -32.455 61.4198 -32.6064C64.6575 -34.4992 68.516 -36.2405 74.7443 -36.2405C82.181 -36.2405 86.2865 -33.7231 89.5843 -31.7168C92.3614 -30.0133 94.551 -28.6694 99.491 -28.6694C104.431 -28.6694 106.621 -30.0133 109.398 -31.7168C112.695 -33.742 116.801 -36.2405 124.231 -36.2405C131.661 -36.2405 135.766 -33.7231 139.064 -31.7168C141.841 -30.0133 144.031 -28.6694 148.971 -28.6694C153.911 -28.6694 156.1 -30.0133 158.877 -31.7168C162.175 -33.742 166.281 -36.2405 173.711 -36.2405C181.141 -36.2405 185.246 -33.7231 188.544 -31.7168C191.321 -30.0133 193.511 -28.6694 198.451 -28.6694L198.451 37.5778C191.021 37.5778 186.915 35.0604 183.617 33.054C180.84 31.3505 178.651 30.0066 173.711 30.0066C168.771 30.0066 166.581 31.3505 163.804 33.054C160.506 35.0793 156.401 37.5777 148.971 37.5777C141.541 37.5777 137.435 35.0604 134.138 33.054C131.36 31.3505 129.171 30.0066 124.231 30.0066C119.291 30.0066 117.101 31.3505 114.324 33.054C111.026 35.0793 106.921 37.5777 99.491 37.5777C92.061 37.5777 87.9554 35.0603 84.6577 33.054C81.8806 31.3505 79.691 30.0066 74.7443 30.0066C70.3584 30.0066 68.1421 31.1044 66.0794 32.3158L64.6374 33.1865C64.297 33.3947 63.9565 33.6029 63.616 33.8111C63.1154 34.114 62.6013 34.4168 62.074 34.6818C59.5172 36.0446 55.8389 37.5967 50.0111 37.5967C42.5811 37.5967 38.4756 35.0793 35.1778 33.0729C32.4007 31.3694 30.2111 30.0256 25.2711 30.0256C20.3312 30.0256 18.1349 31.3694 15.3578 33.0729C12.06 35.0982 7.95451 37.5967 0.524521 37.5967C-6.90547 37.5967 -11.011 35.0793 -14.3088 33.0729C-17.0858 31.3694 -19.2754 30.0256 -24.2154 30.0256C-29.1554 30.0256 -31.345 31.3694 -34.1221 33.0729C-37.4198 35.0982 -41.5254 37.5967 -48.9553 37.5967C-56.3853 37.5967 -60.4975 35.0793 -63.7953 33.0729C-66.5724 31.3694 -68.762 30.0255 -73.702 30.0255C-78.6419 30.0255 -80.8315 31.3694 -83.6086 33.0729C-86.9064 35.0982 -91.0119 37.5966 -98.4486 37.5966L-98.4485 -28.6505C-93.5086 -28.6505 -91.3123 -29.9944 -88.5352 -31.6979C-85.2375 -33.7231 -81.1319 -36.2216 -73.702 -36.2216L-73.7086 -36.2405Z" fill="#E8F3F1"/>
</g>
<path d="M152.62 82.296C146.788 82.296 141.712 80.856 137.392 77.976C133.072 75.096 130.012 71.208 128.212 66.312L136.204 62.424C137.86 65.88 140.128 68.616 143.008 70.632C145.888 72.648 149.092 73.656 152.62 73.656C155.788 73.656 158.416 72.9 160.504 71.388C162.592 69.876 163.636 67.896 163.636 65.448C163.636 63.72 163.132 62.352 162.124 61.344C161.188 60.264 160.036 59.436 158.668 58.86C157.3 58.212 156.04 57.744 154.888 57.456L146.14 54.972C140.884 53.46 137.032 51.3 134.584 48.492C132.208 45.684 131.02 42.408 131.02 38.664C131.02 35.208 131.884 32.22 133.612 29.7C135.412 27.108 137.824 25.092 140.848 23.652C143.944 22.212 147.4 21.492 151.216 21.492C156.328 21.492 160.9 22.788 164.932 25.38C169.036 27.972 171.952 31.608 173.68 36.288L165.472 40.068C164.176 37.044 162.232 34.668 159.64 32.94C157.048 31.14 154.132 30.24 150.892 30.24C147.94 30.24 145.6 30.996 143.872 32.508C142.144 33.948 141.28 35.784 141.28 38.016C141.28 39.672 141.712 41.04 142.576 42.12C143.44 43.128 144.484 43.92 145.708 44.496C146.932 45 148.12 45.432 149.272 45.792L158.776 48.6C163.528 49.968 167.2 52.092 169.792 54.972C172.456 57.852 173.788 61.308 173.788 65.34C173.788 68.58 172.888 71.496 171.088 74.088C169.288 76.68 166.804 78.696 163.636 80.136C160.468 81.576 156.796 82.296 152.62 82.296ZM208.104 82.296C203.928 82.296 200.148 81.324 196.764 79.38C193.452 77.436 190.86 74.736 188.988 71.28C187.188 67.752 186.288 63.72 186.288 59.184V22.788H196.332V58.104C196.332 60.984 196.908 63.504 198.06 65.664C199.284 67.824 200.94 69.516 203.028 70.74C205.188 71.964 207.636 72.576 210.372 72.576C213.108 72.576 215.52 71.964 217.608 70.74C219.768 69.516 221.424 67.752 222.576 65.448C223.8 63.144 224.412 60.408 224.412 57.24V22.788H234.564V81H224.736V69.66L226.356 70.632C224.988 74.304 222.648 77.184 219.336 79.272C216.096 81.288 212.352 82.296 208.104 82.296ZM250.665 102.6V22.788H260.493V35.316L259.197 32.832C261.357 29.376 264.309 26.64 268.053 24.624C271.797 22.536 276.081 21.492 280.905 21.492C286.377 21.492 291.273 22.824 295.593 25.488C299.985 28.152 303.441 31.788 305.961 36.396C308.481 40.932 309.741 46.116 309.741 51.948C309.741 57.636 308.481 62.784 305.961 67.392C303.441 72 299.985 75.636 295.593 78.3C291.273 80.964 286.341 82.296 280.797 82.296C276.117 82.296 271.833 81.252 267.945 79.164C264.129 77.076 261.177 74.124 259.089 70.308L260.709 68.58V102.6H250.665ZM280.041 72.576C283.713 72.576 286.989 71.676 289.869 69.876C292.749 68.076 294.981 65.628 296.565 62.532C298.221 59.364 299.049 55.836 299.049 51.948C299.049 47.916 298.221 44.388 296.565 41.364C294.981 38.268 292.749 35.82 289.869 34.02C286.989 32.148 283.713 31.212 280.041 31.212C276.369 31.212 273.057 32.112 270.105 33.912C267.225 35.712 264.921 38.196 263.193 41.364C261.537 44.46 260.709 47.988 260.709 51.948C260.709 55.836 261.537 59.364 263.193 62.532C264.921 65.628 267.225 68.076 270.105 69.876C273.057 71.676 276.369 72.576 280.041 72.576ZM350.235 82.296C344.619 82.296 339.615 80.964 335.223 78.3C330.831 75.636 327.375 72 324.855 67.392C322.335 62.712 321.075 57.492 321.075 51.732C321.075 45.9 322.299 40.716 324.747 36.18C327.267 31.644 330.651 28.08 334.899 25.488C339.219 22.824 344.043 21.492 349.371 21.492C353.691 21.492 357.507 22.284 360.819 23.868C364.203 25.38 367.047 27.468 369.351 30.132C371.727 32.724 373.527 35.712 374.751 39.096C376.047 42.408 376.695 45.864 376.695 49.464C376.695 50.256 376.623 51.156 376.479 52.164C376.407 53.1 376.299 54 376.155 54.864H328.419V46.224H370.323L365.571 50.112C366.219 46.368 365.859 43.02 364.491 40.068C363.123 37.116 361.107 34.776 358.443 33.048C355.779 31.32 352.755 30.456 349.371 30.456C345.987 30.456 342.891 31.32 340.083 33.048C337.275 34.776 335.079 37.26 333.495 40.5C331.983 43.668 331.371 47.448 331.659 51.84C331.371 56.088 332.019 59.832 333.603 63.072C335.259 66.24 337.563 68.724 340.515 70.524C343.539 72.252 346.815 73.116 350.343 73.116C354.231 73.116 357.507 72.216 360.171 70.416C362.835 68.616 364.995 66.312 366.651 63.504L375.075 67.824C373.923 70.488 372.123 72.936 369.675 75.168C367.299 77.328 364.455 79.056 361.143 80.352C357.903 81.648 354.267 82.296 350.235 82.296ZM390.331 81V22.788H400.159V33.48L399.079 31.968C400.447 28.656 402.535 26.208 405.343 24.624C408.151 22.968 411.571 22.14 415.603 22.14H419.167V31.644H414.091C409.987 31.644 406.675 32.94 404.155 35.532C401.635 38.052 400.375 41.652 400.375 46.332V81H390.331ZM442.02 81L422.04 22.788H433.164L449.04 71.496L445.152 71.388L460.704 22.788H470.208L485.76 71.388L481.872 71.496L497.856 22.788H508.872L488.892 81H479.28L463.944 32.4H466.968L451.632 81H442.02ZM533.35 82.296C529.534 82.296 526.15 81.612 523.198 80.244C520.318 78.804 518.05 76.86 516.394 74.412C514.738 71.892 513.91 69.012 513.91 65.772C513.91 62.676 514.558 59.904 515.854 57.456C517.222 54.936 519.31 52.812 522.118 51.084C524.998 49.356 528.598 48.132 532.918 47.412L554.518 43.848V52.272L535.186 55.512C531.442 56.16 528.706 57.348 526.978 59.076C525.322 60.804 524.494 62.928 524.494 65.448C524.494 67.824 525.43 69.804 527.302 71.388C529.246 72.972 531.658 73.764 534.538 73.764C538.21 73.764 541.378 73.008 544.042 71.496C546.778 69.912 548.902 67.788 550.414 65.124C551.998 62.46 552.79 59.508 552.79 56.268V41.472C552.79 38.304 551.602 35.748 549.226 33.804C546.922 31.788 543.862 30.78 540.046 30.78C536.734 30.78 533.782 31.644 531.19 33.372C528.67 35.028 526.798 37.26 525.574 40.068L516.826 35.532C517.906 32.868 519.634 30.492 522.01 28.404C524.386 26.244 527.158 24.552 530.326 23.328C533.494 22.104 536.806 21.492 540.262 21.492C544.726 21.492 548.65 22.356 552.034 24.084C555.418 25.74 558.046 28.08 559.918 31.104C561.862 34.056 562.834 37.512 562.834 41.472V81H553.006V69.984L554.842 70.632C553.618 72.936 551.962 74.952 549.874 76.68C547.786 78.408 545.338 79.776 542.53 80.784C539.722 81.792 536.662 82.296 533.35 82.296ZM594.092 81L571.304 22.788H582.536L600.788 72.036H596.9L615.26 22.788H626.492L603.596 81H594.092ZM661.747 82.296C656.131 82.296 651.127 80.964 646.735 78.3C642.343 75.636 638.887 72 636.367 67.392C633.847 62.712 632.587 57.492 632.587 51.732C632.587 45.9 633.811 40.716 636.259 36.18C638.779 31.644 642.163 28.08 646.411 25.488C650.731 22.824 655.555 21.492 660.883 21.492C665.203 21.492 669.019 22.284 672.331 23.868C675.715 25.38 678.559 27.468 680.863 30.132C683.239 32.724 685.039 35.712 686.263 39.096C687.559 42.408 688.207 45.864 688.207 49.464C688.207 50.256 688.135 51.156 687.991 52.164C687.919 53.1 687.811 54 687.667 54.864H639.931V46.224H681.835L677.083 50.112C677.731 46.368 677.371 43.02 676.003 40.068C674.635 37.116 672.619 34.776 669.955 33.048C667.291 31.32 664.267 30.456 660.883 30.456C657.499 30.456 654.403 31.32 651.595 33.048C648.787 34.776 646.591 37.26 645.007 40.5C643.495 43.668 642.883 47.448 643.171 51.84C642.883 56.088 643.531 59.832 645.115 63.072C646.771 66.24 649.075 68.724 652.027 70.524C655.051 72.252 658.327 73.116 661.855 73.116C665.743 73.116 669.019 72.216 671.683 70.416C674.347 68.616 676.507 66.312 678.163 63.504L686.587 67.824C685.435 70.488 683.635 72.936 681.187 75.168C678.811 77.328 675.967 79.056 672.655 80.352C669.415 81.648 665.779 82.296 661.747 82.296Z" fill="white"/>
<defs>
<clipPath id="clip0_2898_81238">
<rect x="100" width="100" height="100" rx="50" transform="rotate(90 100 0)" fill="white"/>
</clipPath>
</defs>
</svg>
