<?xml version="1.0" encoding="UTF-8" standalone="no"?>
<svg
   xmlns:dc="http://purl.org/dc/elements/1.1/"
   xmlns:cc="http://creativecommons.org/ns#"
   xmlns:rdf="http://www.w3.org/1999/02/22-rdf-syntax-ns#"
   xmlns:svg="http://www.w3.org/2000/svg"
   xmlns="http://www.w3.org/2000/svg"
   xmlns:sodipodi="http://sodipodi.sourceforge.net/DTD/sodipodi-0.dtd"
   xmlns:inkscape="http://www.inkscape.org/namespaces/inkscape"
   width="24"
   height="24"
   viewBox="0 0 24 24"
   version="1.1"
   id="svg17"
   sodipodi:docname="superwave-logo.svg"
   style="fill:none"
   inkscape:version="0.92.4 (5da689c313, 2019-01-14)">
  <metadata
     id="metadata21">
    <rdf:RDF>
      <cc:Work
         rdf:about="">
        <dc:format>image/svg+xml</dc:format>
        <dc:type
           rdf:resource="http://purl.org/dc/dcmitype/StillImage" />
        <dc:title></dc:title>
      </cc:Work>
    </rdf:RDF>
  </metadata>
  <sodipodi:namedview
     pagecolor="#ffffff"
     bordercolor="#666666"
     borderopacity="1"
     objecttolerance="10"
     gridtolerance="10"
     guidetolerance="10"
     inkscape:pageopacity="0"
     inkscape:pageshadow="2"
     inkscape:window-width="1920"
     inkscape:window-height="1057"
     id="namedview19"
     showgrid="false"
     fit-margin-top="0"
     fit-margin-left="0"
     fit-margin-right="0"
     fit-margin-bottom="0"
     inkscape:zoom="0.51873199"
     inkscape:cx="347"
     inkscape:cy="48.5"
     inkscape:window-x="-8"
     inkscape:window-y="-8"
     inkscape:window-maximized="1"
     inkscape:current-layer="svg17" />
  <g
     clip-path="url(#clip0_2898_81238)"
     id="g8"
     transform="scale(0.24)">
    <rect
       x="100"
       width="100"
       height="100"
       rx="50"
       transform="rotate(90,100,0)"
       id="rect2"
       y="0"
       style="fill:#148370" />
    <path
       d="m -73.7086,-7.94619 c 7.43,0 11.5355,2.57025 14.8333,4.61872 2.777,1.73926 4.9666,3.111354 9.9133,3.111355 4.9466,1e-6 7.1296,-1.372085 9.9066,-3.111355 3.2978,-2.06779 7.4033,-4.61872 14.8333,-4.61872 7.43,0 11.5355,2.57025 14.83331,4.61872 2.77707,1.73927 4.96668,3.111362 9.906652,3.111363 4.939978,1e-6 7.129588,-1.372093 9.906638,-3.111353 3.2978,-2.0678 7.4033,-4.61872 14.84,-4.61872 7.4366,0 11.5355,2.57025 14.8333,4.61872 2.777,1.73927 4.9666,3.11136 9.9066,3.111361 3.8986,1e-6 6.0415,-0.888961 7.7771,-1.835891 l 0.1669,-0.09663 c 0.247,-0.13527 0.4873,-0.27055 0.721,-0.40582 l 0.1535,-0.09663 c 0.3071,-0.17392 0.6008,-0.36718 0.9012,-0.56043 0.2938,-0.17393 0.5875,-0.36718 0.8812,-0.54111 0.2671,-0.17393 0.5341,-0.32853 0.8145,-0.48313 3.2377,-1.93252 7.0962,-3.71043 13.3245,-3.71043 7.4367,0 11.5422,2.57025 14.84,4.61872 2.7771,1.73927 4.9667,3.111358 9.9067,3.111359 4.94,1e-6 7.13,-1.372089 9.907,-3.111359 3.297,-2.06779 7.403,-4.61871 14.833,-4.61871 7.43,0 11.535,2.57025 14.833,4.61872 2.777,1.73927 4.967,3.111356 9.907,3.111357 4.94,1e-6 7.129,-1.372087 9.906,-3.111357 3.298,-2.06779 7.404,-4.61872 14.834,-4.61871 7.43,0 11.535,2.57025 14.833,4.61872 2.777,1.73926 4.967,3.111354 9.907,3.111355 V 67.4221 c -7.43,0 -11.536,-2.5703 -14.834,-4.6187 -2.777,-1.7393 -4.966,-3.1114 -9.906,-3.1114 -4.94,0 -7.13,1.3721 -9.907,3.1114 -3.298,2.0678 -7.403,4.6187 -14.833,4.6187 -7.43,0 -11.536,-2.5703 -14.833,-4.6187 -2.778,-1.7393 -4.967,-3.1114 -9.907,-3.1114 -4.94,0 -7.13,1.3721 -9.907,3.1113 -3.298,2.0678 -7.403,4.6188 -14.833,4.6188 -7.43,0 -11.5356,-2.5703 -14.8333,-4.6188 -2.7771,-1.7392 -4.9667,-3.1113 -9.9134,-3.1113 -4.3859,0 -6.6022,1.1208 -8.6649,2.3577 l -1.442,0.8889 c -0.3404,0.2126 -0.6809,0.4252 -1.0214,0.6377 -0.5006,0.3092 -1.0147,0.6185 -1.542,0.889 -2.5568,1.3914 -6.2351,2.9761 -12.0629,2.9761 -7.43,0 -11.5355,-2.5703 -14.8333,-4.6187 -2.7771,-1.7393 -4.9667,-3.1114 -9.9067,-3.1114 -4.9399,0 -7.1362,1.3721 -9.9133,3.1114 -3.2978,2.0678 -7.40329,4.6187 -14.833279,4.6187 -7.429991,0 -11.535521,-2.5703 -14.833321,-4.6187 -2.777,-1.7393 -4.9666,-3.1114 -9.9066,-3.1114 -4.94,0 -7.1296,1.3721 -9.9067,3.1113 -3.2977,2.0678 -7.4033,4.6188 -14.8332,4.6188 -7.43,0 -11.5422,-2.5703 -14.84,-4.6188 -2.7771,-1.7392 -4.9667,-3.1113 -9.9067,-3.1113 -4.9399,0 -7.1295,1.3721 -9.9066,3.1113 -3.2978,2.0678 -7.4033,4.6188 -14.84,4.6188 V -0.196801 c 4.94,1e-6 7.1363,-1.372079 9.9134,-3.111349 3.2977,-2.06779 7.4033,-4.61872 14.8332,-4.61872 z"
       id="path4"
       inkscape:connector-curvature="0"
       style="fill:#8bc2b9" />
    <path
       d="m -73.7086,-36.2405 c 7.43,0 11.5355,2.5174 14.8333,4.5237 2.777,1.7035 4.9666,3.0474 9.9133,3.0474 4.9467,0 7.1296,-1.3439 9.9067,-3.0474 3.2977,-2.0253 7.4032,-4.5237 14.8332,-4.5237 7.43,0 11.5355,2.5174 14.83331,4.5237 2.77707,1.7035 4.96668,3.0474 9.906654,3.0474 4.939976,0 7.129586,-1.3439 9.906636,-3.0474 3.2978,-2.0253 7.4033,-4.5237 14.84,-4.5237 7.4366,0 11.5355,2.5174 14.8333,4.5237 2.777,1.7035 4.9666,3.0474 9.9066,3.0474 3.8986,0 6.0415,-0.8707 7.7771,-1.7982 l 0.1669,-0.0946 c 0.247,-0.1325 0.4873,-0.265 0.721,-0.3975 l 0.1535,-0.0946 c 0.3071,-0.1704 0.6008,-0.3596 0.9012,-0.5489 0.2938,-0.1704 0.5875,-0.3596 0.8812,-0.53 0.2671,-0.1703 0.5341,-0.3218 0.8145,-0.4732 3.2377,-1.8928 7.0962,-3.6341 13.3245,-3.6341 7.4367,0 11.5422,2.5174 14.84,4.5237 2.7771,1.7035 4.9667,3.0474 9.9067,3.0474 4.94,0 7.13,-1.3439 9.907,-3.0474 3.297,-2.0252 7.403,-4.5237 14.833,-4.5237 7.43,0 11.535,2.5174 14.833,4.5237 2.777,1.7035 4.967,3.0474 9.907,3.0474 4.94,0 7.129,-1.3439 9.906,-3.0474 3.298,-2.0252 7.404,-4.5237 14.834,-4.5237 7.43,0 11.535,2.5174 14.833,4.5237 2.777,1.7035 4.967,3.0474 9.907,3.0474 v 66.2472 c -7.43,0 -11.536,-2.5174 -14.834,-4.5238 -2.777,-1.7035 -4.966,-3.0474 -9.906,-3.0474 -4.94,0 -7.13,1.3439 -9.907,3.0474 -3.298,2.0253 -7.403,4.5237 -14.833,4.5237 -7.43,0 -11.536,-2.5173 -14.833,-4.5237 -2.778,-1.7035 -4.967,-3.0474 -9.907,-3.0474 -4.94,0 -7.13,1.3439 -9.907,3.0474 -3.298,2.0253 -7.403,4.5237 -14.833,4.5237 -7.43,0 -11.5356,-2.5174 -14.8333,-4.5237 -2.7771,-1.7035 -4.9667,-3.0474 -9.9134,-3.0474 -4.3859,0 -6.6022,1.0978 -8.6649,2.3092 l -1.442,0.8707 c -0.3404,0.2082 -0.6809,0.4164 -1.0214,0.6246 -0.5006,0.3029 -1.0147,0.6057 -1.542,0.8707 -2.5568,1.3628 -6.2351,2.9149 -12.0629,2.9149 -7.43,0 -11.5355,-2.5174 -14.8333,-4.5238 -2.7771,-1.7035 -4.9667,-3.0473 -9.9067,-3.0473 -4.9399,0 -7.1362,1.3438 -9.9133,3.0473 -3.2978,2.0253 -7.40329,4.5238 -14.833279,4.5238 -7.429991,0 -11.535521,-2.5174 -14.833321,-4.5238 -2.777,-1.7035 -4.9666,-3.0473 -9.9066,-3.0473 -4.94,0 -7.1296,1.3438 -9.9067,3.0473 -3.2977,2.0253 -7.4033,4.5238 -14.8332,4.5238 -7.43,0 -11.5422,-2.5174 -14.84,-4.5238 -2.7771,-1.7035 -4.9667,-3.0474 -9.9067,-3.0474 -4.9399,0 -7.1295,1.3439 -9.9066,3.0474 -3.2978,2.0253 -7.4033,4.5237 -14.84,4.5237 l 1e-4,-66.2471 c 4.9399,0 7.1362,-1.3439 9.9133,-3.0474 3.2977,-2.0252 7.4033,-4.5237 14.8332,-4.5237 z"
       id="path6"
       inkscape:connector-curvature="0"
       style="fill:#e8f3f1" />
  </g>
  <defs
     id="defs15">
    <clipPath
       id="clip0_2898_81238">
      <rect
         x="100"
         width="100"
         height="100"
         rx="50"
         transform="rotate(90,100,0)"
         id="rect12"
         y="0"
         style="fill:#ffffff" />
    </clipPath>
  </defs>
</svg>
