<svg width="103" height="36" viewBox="0 0 103 36" fill="none" xmlns="http://www.w3.org/2000/svg">
<rect width="103" height="36" rx="10" fill="#152341"/>
<rect x="5" y="5" width="26" height="26" rx="8" fill="#3272FF"/>
<path fill-rule="evenodd" clip-rule="evenodd" d="M19.9381 12.2335C19.9168 13.0865 19.321 14.3022 18.3209 14.3022C17.7039 14.3022 17.1932 13.7903 17.1932 13.1718V13.1505C17.1719 12.1481 16.725 11.2737 16.0229 10.6553C15.4909 10.2074 14.8313 9.90881 14.1078 9.8235C14.7249 9.18369 15.5973 8.7998 16.5548 8.7998C17.7677 8.7998 18.8742 9.5036 19.5125 10.5273C19.8104 11.0391 19.9594 11.6576 19.9381 12.2335ZM15.9771 12.3201C16.5091 13.0026 16.8282 14.3035 16.0622 14.9433C15.5728 15.3485 14.8706 15.2845 14.4663 14.8153C13.8067 14.0689 12.8917 13.685 11.9768 13.6637C11.2746 13.6424 10.5724 13.8556 9.97659 14.2608C10.0404 13.3864 10.4447 12.512 11.1895 11.8935C12.147 11.1044 13.4875 10.8699 14.6366 11.339C15.1685 11.531 15.6366 11.8722 15.9771 12.3201ZM14.768 16.8814C14.9383 15.9004 13.8318 15.0899 13.0019 14.9193C12.47 14.8127 11.8742 14.8553 11.3422 15.026C10.1506 15.4312 9.2782 16.4549 9.04414 17.6705C8.89519 18.6302 9.12925 19.5473 9.63993 20.2724C9.83144 19.5686 10.257 18.9501 10.789 18.5236C11.4912 17.9478 12.4487 17.6492 13.4275 17.7985H13.4488C14.0658 17.9051 14.6616 17.4999 14.768 16.8814ZM12.3851 18.847C13.1299 18.4417 14.4917 18.3564 14.9811 19.2095C15.3003 19.7427 15.1088 20.4465 14.5768 20.7664C13.7257 21.2782 13.1937 22.11 13.0022 23.027C12.8745 23.7095 12.9384 24.4346 13.2575 25.0958C12.4064 24.8825 11.6191 24.328 11.151 23.4962C10.5339 22.4086 10.5552 21.065 11.1935 19.9986C11.4914 19.5081 11.8957 19.1029 12.3851 18.847ZM16.6417 20.8493C15.7267 20.5081 14.7479 21.4465 14.4287 22.2356C14.2372 22.7474 14.1734 23.3232 14.2372 23.8777C14.4287 25.1147 15.2799 26.1597 16.4502 26.5863C17.3439 26.9275 18.2801 26.8422 19.0887 26.4583C18.4291 26.1384 17.9184 25.6479 17.578 25.0294C17.1311 24.219 17.0034 23.2379 17.3226 22.2995C17.5354 21.7237 17.2375 21.0626 16.6417 20.8493ZM18.174 23.5132C17.8974 22.7028 18.0464 21.3592 18.9826 21.0179C19.5784 20.8047 20.2168 21.1032 20.4295 21.7004C20.7913 22.6175 21.5147 23.2999 22.3872 23.6412C23.0255 23.8971 23.7703 23.9397 24.4724 23.7691C24.1107 24.5795 23.4298 25.2407 22.5361 25.5819C21.3658 26.0084 20.0253 25.7525 19.1103 24.9208C18.6847 24.5156 18.3443 24.0464 18.174 23.5132ZM20.8975 19.6563C20.3869 20.5094 21.1529 21.6397 21.8763 22.0876C22.3232 22.3861 22.8977 22.5354 23.4935 22.5354C24.7277 22.5781 25.9192 21.917 26.5363 20.8293C27.0257 19.9975 27.1108 19.0591 26.8768 18.2061C26.4512 18.8032 25.8554 19.2298 25.1958 19.4643C24.3021 19.7629 23.3233 19.6989 22.4509 19.2297C21.8976 18.9312 21.2167 19.1231 20.8975 19.6563ZM23.7887 18.6099C22.9375 18.7379 21.6395 18.354 21.4693 17.3729C21.3416 16.7758 21.7672 16.1786 22.3843 16.072H22.4056C23.3844 15.8801 24.1717 15.2829 24.6398 14.4938C25.0015 13.8966 25.1718 13.1929 25.1079 12.4677C25.8314 12.9583 26.3846 13.7474 26.5336 14.6857C26.7464 15.9014 26.257 17.181 25.2994 17.9488C24.8526 18.29 24.3206 18.5459 23.7887 18.6099ZM20.4506 15.2831C21.2166 15.9229 22.4508 15.3684 23.0253 14.7286C23.387 14.3234 23.6424 13.7902 23.7488 13.2357C24.0041 12.0201 23.5573 10.7192 22.5997 9.93005C21.855 9.31157 20.94 9.05565 20.0676 9.14095C20.5783 9.67413 20.8975 10.3353 21.0038 11.0177C21.1528 11.9348 20.9187 12.9158 20.3017 13.6836C19.8974 14.1741 19.9612 14.8779 20.4506 15.2831Z" fill="white"/>
<path d="M37.6945 25V11H46.8345V13.04H40.0345V16.56H45.5145V18.6H40.0345V22.94H47.0545V25H37.6945ZM50.9077 25L47.2277 14.92H49.4477L51.9477 22.46L54.4477 14.92H56.6877L53.0077 25H50.9077ZM56.8404 19.96C56.8404 17.24 58.5604 14.76 61.7604 14.76C65.0004 14.76 66.7204 17.12 66.7204 19.58C66.7204 19.88 66.7004 20.3 66.6804 20.48H58.9804C59.1804 22.22 60.3004 23.3 61.9004 23.3C63.2204 23.3 64.1604 22.68 64.4204 21.58L66.4804 22.1C65.9404 24.04 64.2204 25.16 61.8604 25.16C58.6604 25.16 56.8404 22.68 56.8404 19.96ZM59.0804 18.82H64.4004C64.2604 17.46 63.3604 16.48 61.7604 16.48C60.3804 16.48 59.4004 17.32 59.0804 18.82ZM68.3476 25V14.92H70.5276V16.6C71.2076 15.52 72.3676 14.76 73.8476 14.76C75.9876 14.76 77.4876 16.18 77.4876 18.36V25H75.3076V18.86C75.3076 17.6 74.5276 16.72 73.2476 16.72C71.5476 16.72 70.5276 18.16 70.5276 20.58V25H68.3476ZM85.0152 24.92C84.5352 25.08 83.9752 25.16 83.4152 25.16C81.5152 25.16 80.0952 24.12 80.0952 21.82V16.78H78.3352V14.92H80.0952V11.92H82.2752V14.92H84.8752V16.78H82.2752V21.7C82.2752 22.7 82.8352 23.22 83.6552 23.22C84.0352 23.22 84.4952 23.16 84.8752 22.98L85.0152 24.92ZM90.2073 25.16C87.7473 25.16 86.3473 23.64 85.8873 22.2L87.6873 21.44C88.0273 22.52 88.8073 23.42 90.2073 23.42C91.2473 23.42 91.9473 22.82 91.9473 22.1C91.9473 19.92 86.3273 21.34 86.3273 17.52C86.3273 15.94 87.7073 14.76 89.8873 14.76C91.7873 14.76 93.3873 15.76 93.8273 17.24L92.0273 18C91.7673 17 90.8273 16.44 89.9073 16.44C88.9473 16.44 88.3473 16.82 88.3473 17.48C88.3473 19.42 94.0073 17.94 94.0073 22.08C94.0073 23.82 92.4873 25.16 90.2073 25.16Z" fill="white"/>
</svg>
