<svg width="112" height="36" viewBox="0 0 112 36" fill="none" xmlns="http://www.w3.org/2000/svg">
<rect width="112" height="36" rx="10" fill="#272441"/>
<rect x="5" y="5" width="26" height="26" rx="8" fill="#8976FF"/>
<path fill-rule="evenodd" clip-rule="evenodd" d="M12.1362 14.1408C13.7613 12.75 15.8717 12.0607 18.0042 12.2242C20.1368 12.3878 22.1174 13.3907 23.5115 15.013C23.8923 15.4562 24.197 15.9595 24.4132 16.5023C24.9165 16.799 25.3673 17.1769 25.7476 17.6205C26.1238 18.061 26.4485 18.5431 26.7152 19.0574C26.7724 18.6412 26.8007 18.2215 26.7997 17.8014C26.7997 15.414 25.8515 13.1244 24.1637 11.4363C22.4759 9.74816 20.1867 8.7998 17.7998 8.7998C15.4129 8.7998 13.1237 9.74816 11.4359 11.4363C9.74812 13.1244 8.79993 15.414 8.79993 17.8014C8.79993 18.077 8.8126 18.3483 8.8371 18.617C9.57787 16.891 10.7069 15.3591 12.1362 14.1408ZM19.685 18.7223C19.545 18.8416 19.4301 18.9875 19.347 19.1516C19.2639 19.3157 19.2142 19.4948 19.2008 19.6782C19.1866 19.8609 19.2087 20.0446 19.2658 20.2187C19.323 20.3927 19.414 20.5538 19.5337 20.6925C19.6531 20.8325 19.799 20.9475 19.963 21.0307C20.1271 21.114 20.306 21.1639 20.4895 21.1776C20.6721 21.1917 20.8557 21.1695 21.0297 21.1123C21.2038 21.0552 21.3648 20.9642 21.5035 20.8446C21.893 20.5078 22.1936 20.0802 22.3787 19.5996C22.5638 19.1191 22.6278 18.6003 22.5649 18.0892C22.2881 18.0105 22.0017 17.9707 21.714 17.9709C20.9698 17.9718 20.2503 18.2383 19.685 18.7223ZM22.9319 22.5266C23.7542 21.8205 24.3412 20.8801 24.6144 19.8312C25.1233 20.6995 25.3769 21.6938 25.3462 22.6998C24.5298 23.959 23.4112 24.9939 22.0926 25.71C20.7739 26.4262 19.297 26.8009 17.7965 26.8C16.2517 26.8012 14.7326 26.4044 13.3856 25.6477C12.0387 24.8911 10.9094 23.8001 10.1065 22.4801C10.3497 19.893 11.5928 17.5031 13.5712 15.8189C14.6278 14.9146 15.9714 14.4153 17.3621 14.4102C18.7527 14.4051 20.0999 14.8945 21.1632 15.791C20.0808 15.899 19.0576 16.3366 18.2317 17.0445C17.871 17.3525 17.5749 17.729 17.3607 18.1522C17.1465 18.5754 17.0183 19.0369 16.9835 19.51C16.9459 19.9827 17.0023 20.4582 17.1495 20.9089C17.2967 21.3597 17.5319 21.7768 17.8413 22.1361C18.149 22.497 18.5253 22.7933 18.9482 23.0079C19.3712 23.2225 19.8325 23.351 20.3055 23.3862C20.3993 23.3963 20.4939 23.3963 20.5869 23.3963C21.4472 23.3954 22.279 23.087 22.9319 22.5266Z" fill="white"/>
<path d="M42.1684 25.16C39.4484 25.16 37.2084 23.36 36.8084 20.8L38.9484 20.14C39.1884 21.94 40.5684 23.12 42.2484 23.12C43.9084 23.12 44.9884 22.34 44.9884 21.14C44.9884 17.82 37.3284 19.64 37.3284 14.6C37.3284 12.38 39.3884 10.84 42.1284 10.84C44.7484 10.84 46.8084 12.24 47.2084 14.34L45.1084 15.2C44.8284 13.78 43.7284 12.88 42.1284 12.88C40.6084 12.88 39.6884 13.52 39.6884 14.6C39.6884 17.42 47.3684 15.46 47.3684 21.1C47.3684 23.54 45.3084 25.16 42.1684 25.16ZM48.3857 19.96C48.3857 17.24 50.1057 14.76 53.3057 14.76C56.5457 14.76 58.2657 17.12 58.2657 19.58C58.2657 19.88 58.2457 20.3 58.2257 20.48H50.5257C50.7257 22.22 51.8457 23.3 53.4457 23.3C54.7657 23.3 55.7057 22.68 55.9657 21.58L58.0257 22.1C57.4857 24.04 55.7657 25.16 53.4057 25.16C50.2057 25.16 48.3857 22.68 48.3857 19.96ZM50.6257 18.82H55.9457C55.8057 17.46 54.9057 16.48 53.3057 16.48C51.9257 16.48 50.9457 17.32 50.6257 18.82ZM63.2752 25.16C60.8152 25.16 59.4152 23.64 58.9552 22.2L60.7552 21.44C61.0952 22.52 61.8752 23.42 63.2752 23.42C64.3152 23.42 65.0152 22.82 65.0152 22.1C65.0152 19.92 59.3952 21.34 59.3952 17.52C59.3952 15.94 60.7752 14.76 62.9552 14.76C64.8552 14.76 66.4552 15.76 66.8952 17.24L65.0952 18C64.8352 17 63.8952 16.44 62.9752 16.44C62.0152 16.44 61.4152 16.82 61.4152 17.48C61.4152 19.42 67.0752 17.94 67.0752 22.08C67.0752 23.82 65.5552 25.16 63.2752 25.16ZM72.1135 25.16C69.6535 25.16 68.2535 23.64 67.7935 22.2L69.5935 21.44C69.9335 22.52 70.7135 23.42 72.1135 23.42C73.1535 23.42 73.8535 22.82 73.8535 22.1C73.8535 19.92 68.2335 21.34 68.2335 17.52C68.2335 15.94 69.6135 14.76 71.7935 14.76C73.6935 14.76 75.2935 15.76 75.7335 17.24L73.9335 18C73.6735 17 72.7335 16.44 71.8135 16.44C70.8535 16.44 70.2535 16.82 70.2535 17.48C70.2535 19.42 75.9135 17.94 75.9135 22.08C75.9135 23.82 74.3935 25.16 72.1135 25.16ZM77.4718 25V14.92H79.6518V25H77.4718ZM77.1518 11.84C77.1518 11.04 77.7518 10.42 78.5518 10.42C79.3718 10.42 79.9918 11.04 79.9918 11.84C79.9918 12.62 79.3718 13.24 78.5518 13.24C77.7518 13.24 77.1518 12.62 77.1518 11.84ZM86.4974 25.16C83.4574 25.16 81.2974 22.98 81.2974 19.96C81.2974 16.94 83.4574 14.76 86.4974 14.76C89.5174 14.76 91.6974 16.94 91.6974 19.96C91.6974 22.98 89.5174 25.16 86.4974 25.16ZM83.4974 19.96C83.4974 21.9 84.6974 23.26 86.4974 23.26C88.2774 23.26 89.4974 21.9 89.4974 19.96C89.4974 18.02 88.2774 16.66 86.4974 16.66C84.6974 16.66 83.4974 18.02 83.4974 19.96ZM93.3124 25V14.92H95.4924V16.6C96.1724 15.52 97.3324 14.76 98.8124 14.76C100.952 14.76 102.452 16.18 102.452 18.36V25H100.272V18.86C100.272 17.6 99.4924 16.72 98.2124 16.72C96.5124 16.72 95.4924 18.16 95.4924 20.58V25H93.3124Z" fill="white"/>
</svg>
