<svg width="230" height="32" viewBox="0 0 230 32" fill="none" xmlns="http://www.w3.org/2000/svg">
<path d="M27.8109 18.0342C27.5051 17.8316 27.1993 17.6122 26.9105 17.4096C25.0416 16.1098 22.8329 13.8647 22.4081 13.4258C22.1873 12.1429 21.7965 10.5899 20.5562 8.80051C19.5878 7.11245 17.8378 6.13337 16.7844 5.6776C15.884 3.38184 11.4326 3.04422 9.71662 2.92606C9.51274 2.90918 9.30886 2.90918 9.10498 2.90918C5.70698 2.90918 5.01039 5.22182 4.87447 6.18402C4.02498 6.23466 3.29441 6.43723 2.66578 6.79172C0.711932 7.92272 0.168254 10.2016 0.0493239 11.9065C-0.0526159 13.4933 0.0323339 14.1179 0.0493239 14.2361C0.185244 15.519 0.542033 16.4812 1.88424 17.5278C1.00076 21.4947 0.677952 26.12 0.660963 26.1707L0.643973 26.2888L0.711932 26.3901C0.779892 26.4914 2.59782 28.8378 6.59046 29.0741C6.76036 29.091 6.94725 29.091 7.11715 29.091C11.4836 29.091 13.0806 25.7318 13.1486 25.5967L13.2165 25.4617L13.1656 25.3266C13.1656 25.3266 12.7748 24.2631 13.3695 22.305C13.8622 20.6845 15.6121 20.3975 16.0709 20.3637C18.1776 21.9505 24.0392 24.989 25.5683 25.5967C26.3328 25.9006 27.0634 26.0694 27.709 26.0694C28.4735 26.0694 29.0512 25.833 29.323 25.4279C29.7818 24.702 29.6968 24.0099 29.0682 23.3854C29.2381 23.4191 29.442 23.436 29.6628 23.4698C29.8667 23.5035 30.1386 23.5204 30.3934 23.5204C31.3279 23.5204 31.8545 23.0815 31.9905 22.1699C32.1434 21.0727 30.4444 19.8067 27.8109 18.0342ZM7.13414 28.7703C7.11715 28.7703 7.11715 28.7703 7.10016 28.7703C7.16812 28.7703 7.23608 28.7703 7.32103 28.7703C7.25307 28.7703 7.2021 28.7703 7.13414 28.7703ZM9.03702 3.26367C9.05401 3.26367 9.08799 3.26367 9.10498 3.26367C9.15595 3.26367 9.18993 3.26367 9.2409 3.26367C9.18993 3.26367 9.10498 3.24679 9.03702 3.26367ZM11.3986 3.44936C11.6365 3.48312 11.8913 3.51688 12.1462 3.55064C11.8913 3.51688 11.6365 3.46624 11.3986 3.44936Z" fill="#2D2D2F"/>
<path d="M26.8256 17.6964C24.7018 16.2278 22.2043 13.5944 22.2043 13.5944C21.9834 12.244 21.6096 10.7585 20.3864 9.00292C19.4009 7.2811 17.549 6.33579 16.6316 5.94753C15.952 3.75305 11.5006 3.39856 9.81859 3.2804C5.21431 2.94278 5.29926 6.6734 5.29926 6.6734L3.65124 12.0921L2.41097 17.3251C1.45953 21.3764 1.13672 26.2043 1.13672 26.2043C1.13672 26.2043 2.8697 28.5169 6.7604 28.7532C11.3477 29.0233 12.9787 25.4615 12.9787 25.4615C12.9787 25.4615 12.537 24.3305 13.1826 22.2204C13.8282 20.1104 16.3258 20.026 16.3258 20.026C18.3476 21.5958 24.345 24.7019 25.8401 25.2927C27.6071 26.0017 28.8474 25.7654 29.1702 25.2589C29.493 24.7525 29.6289 24.1111 28.6605 23.3683C28.0318 22.8957 27.6581 22.6424 27.6581 22.6424C28.3716 22.8113 28.4566 22.9801 29.8498 23.1489C30.8352 23.267 31.6167 23.267 31.7866 22.1529C31.9225 21.005 29.0682 19.2494 26.8256 17.6964Z" fill="#2D2D2F"/>
<path d="M7.21888 25.8496C4.53447 25.7652 2.97139 24.8537 2.4447 24.4992L2.25781 25.8159C2.25781 25.8159 4.3136 27.7402 7.03199 27.7402C8.00042 27.7402 9.9033 27.8415 11.7722 25.4107C11.7722 25.4107 11.7042 24.9043 11.7382 24.1953C11.0586 24.8537 10.0562 25.934 7.21888 25.8496Z" fill="white"/>
<path d="M2.25781 24.3655C2.25781 24.3655 2.32577 24.4162 2.4447 24.5006L2.46169 24.3486L2.25781 24.3655Z" fill="#2D2D2F"/>
<path d="M12.0621 23.8916L11.7562 23.9085C11.7562 24.0098 11.7393 24.0942 11.7393 24.1955C11.8582 24.0773 11.9601 23.976 12.0621 23.8916Z" fill="#2D2D2F"/>
<path d="M20.7941 11.8226C19.6897 9.13854 17.6679 7.01159 15.4083 6.28572C13.1486 5.55986 9.73362 4.90151 8.68024 7.4336C8.68024 7.4336 3.68519 16.0427 3.36238 18.0684L2.4789 24.348L2.46191 24.4999C2.97161 24.8544 4.55168 25.7659 7.23609 25.8503C10.0734 25.9347 11.0928 24.8544 11.7554 24.1792C11.7554 24.0948 11.7724 23.9935 11.7724 23.8922C11.8574 22.93 12.1122 21.6977 12.8768 20.7524C14.3209 18.9631 16.8354 18.8955 16.8354 18.8955C16.8354 18.8955 18.7383 19.115 20.0635 17.7477C21.3887 16.3803 21.8814 14.5235 20.7941 11.8226Z" fill="#016666"/>
<path d="M22.4252 19.2826C22.4252 19.2826 24.2941 20.9369 24.9737 21.5108C25.6533 22.0848 28.4906 24.0598 28.5076 24.4987C28.5076 24.6 21.3888 21.2576 21.3888 21.2576C21.3888 21.2576 15.2894 17.0544 15.3234 16.9362C15.3574 16.818 15.5782 15.974 15.7142 15.9234C15.8501 15.8727 18.7214 15.974 18.7214 15.974L22.4252 19.2826Z" fill="#79455B"/>
<path d="M15.6806 17.0205C16.1733 17.088 18.9596 18.1346 20.5737 19.4513C22.2047 20.768 24.9401 22.6586 25.7386 23.03C26.5372 23.4183 28.559 24.2454 28.508 24.5661C28.457 24.8869 28.2192 25.427 26.3673 24.7012C24.5154 23.9584 19.7072 21.1225 19.0276 20.6667C18.348 20.2109 14.916 17.8814 14.916 17.8814L15.6806 17.0205Z" fill="#C8842C"/>
<path d="M10.2092 11.7197C10.8888 11.5847 12.9445 11.6015 14.5246 13.1208C16.1047 14.64 16.3765 15.8554 15.9348 16.9358C15.493 18.0162 14.6775 18.8264 13.0465 17.9655C11.4155 17.1046 9.85238 16.0411 9.35967 14.7244C8.86696 13.4078 10.2092 11.7197 10.2092 11.7197Z" fill="#02A484"/>
<path d="M0.508471 14.2185C0.661381 15.5859 1.05215 16.4974 2.64921 17.6115C3.37977 18.1179 4.16131 18.5231 5.82633 18.388C7.50834 18.253 8.69763 17.1389 9.2583 15.9235C9.81897 14.7081 10.7704 11.9059 10.0738 9.64389C9.39422 7.38189 8.11997 7.07803 7.49135 6.87547C6.86272 6.65602 4.63703 6.13272 2.93804 7.11179C1.23904 8.09087 0.610411 10.0828 0.491481 11.9565C0.389541 13.6615 0.508471 14.2185 0.508471 14.2185Z" fill="#2D2D2F"/>
<path d="M3.46478 8.19332C3.46478 8.19332 4.33127 7.63626 5.94531 7.97388C7.55936 8.31149 8.56177 9.45937 8.56177 10.8605C8.56177 12.2615 8.39187 14.7936 7.08364 16.0766C6.01327 17.1232 3.20993 17.6633 2.08859 15.5364C0.967253 13.4094 3.73662 11.8395 3.73662 11.8395L3.46478 8.19332Z" fill="#1565EA"/>
<path d="M11.9421 9.64576C11.7212 8.95365 12.2989 8.05898 13.76 7.75513C15.2211 7.45128 16.7333 7.75513 17.5148 9.12246C18.2963 10.4898 16.8182 11.165 15.9687 11.3507C15.1192 11.5364 12.4858 11.3507 11.9421 9.64576Z" fill="#02A484"/>
<path d="M13.9814 12.2604C14.1173 11.2644 14.7629 10.5385 15.4085 10.471C15.7143 10.4373 15.9522 10.5892 16.1221 10.8086C16.0371 10.5385 15.9012 10.3022 15.7313 10.0996C15.0177 9.32314 13.6416 9.94772 13.2168 11.4839C12.7921 13.02 13.3867 14.2523 13.9984 14.4211C14.2872 14.5055 14.525 14.4886 14.7459 14.438C14.6949 14.4211 14.661 14.4211 14.61 14.3873C13.6925 13.9315 13.9304 12.6317 13.9814 12.2604Z" fill="white"/>
<path d="M16.1207 10.8076C16.3756 11.5841 16.2396 12.5632 15.9508 13.154C15.662 13.728 15.2882 14.2681 14.7275 14.4201" fill="#2D2D2F"/>
<path d="M15.9517 13.1545C16.2405 12.5637 16.3595 11.5846 16.1216 10.8081C15.9517 10.5887 15.6969 10.4368 15.408 10.4705C14.7624 10.538 14.0998 11.2639 13.9809 12.2599C13.9299 12.6312 13.709 13.9479 14.6095 14.3699C14.6605 14.3868 14.6945 14.4037 14.7454 14.4206C15.3061 14.2687 15.6799 13.7285 15.9517 13.1545Z" fill="#2D2D2F"/>
<path d="M29.5777 21.5783C29.153 21.1731 28.6093 20.7174 28.7792 20.5148C28.8811 20.3966 29.136 20.3798 29.5098 20.5148C28.7282 19.9746 27.7258 19.3163 26.6555 18.5735C24.2429 16.9024 21.3886 14.2521 21.0997 14.0495C20.1143 13.3405 19.9444 14.1002 19.9274 14.4715C19.9104 14.8429 19.9104 15.2987 19.044 15.6869C18.1775 16.0752 17.1751 15.7038 16.5804 15.6194C15.9858 15.535 16.0367 16.0077 16.3256 16.244C17.294 17.0205 27.3011 21.8484 29.4078 22.2704C29.4758 22.2873 29.5268 22.2873 29.5947 22.3041C29.6797 22.1691 29.8836 21.8652 29.5777 21.5783Z" fill="#FFCC34"/>
<path d="M31.0224 22.0003C31.0904 21.7302 30.4617 21.2069 29.4933 20.5148C29.1195 20.3628 28.8647 20.3966 28.7627 20.5148C28.6098 20.7004 29.1535 21.1731 29.5613 21.5782C29.8671 21.8652 29.6802 22.1691 29.5443 22.3041C30.6996 22.5236 30.9205 22.4729 31.0224 22.0003Z" fill="#C8842C"/>
<path d="M20.8796 16.3623C21.0495 16.7843 21.882 17.2401 22.3237 17.1388C22.7824 17.0375 22.5616 16.5817 22.0009 16.0415C21.4402 15.5182 20.5568 15.5351 20.8796 16.3623Z" fill="#C8842C"/>
<path d="M4.63672 18.1357L4.73866 27.4876L5.89398 27.8421L5.74107 18.1357H4.63672Z" fill="#2D2D2F"/>
<path d="M6.98132 14.7431C6.08085 16.7688 4.56875 16.7012 3.27751 16.3805C1.91831 16.0429 1.56152 14.7093 1.51055 13.4602C1.49356 12.7849 1.74841 9.98277 2.63189 8.83489C3.51537 7.68701 5.1464 7.97398 5.63911 8.10902C6.13182 8.24407 7.96674 9.13874 7.6949 11.3332C7.42306 13.6459 7.32112 13.9835 6.98132 14.7431Z" fill="white"/>
<path d="M2.46191 14.2864L2.75074 13.2735C2.75074 13.2735 3.97402 13.915 4.55168 13.6787C5.11235 13.4424 4.8575 12.8515 4.22887 12.5983C3.60024 12.3282 2.78472 11.9062 3.10753 10.6571C3.43034 9.40789 4.27984 9.03652 6.31864 9.79614L5.94486 10.8765C5.94486 10.8765 4.27984 10.0494 4.12693 10.9271C4.02499 11.5855 6.42058 11.6699 5.99583 13.5099C5.40118 15.8225 2.46191 14.2864 2.46191 14.2864Z" fill="#1565EA"/>
<path d="M50.49 24.176C47.52 24.176 45.144 22.262 44.638 19.446L46.53 18.83C46.838 20.986 48.488 22.394 50.534 22.394C52.646 22.394 54.01 21.404 54.01 19.864C54.01 15.75 45.254 17.906 45.254 12.45C45.254 10.052 47.41 8.424 50.446 8.424C53.262 8.424 55.44 9.942 55.836 12.23L54.01 12.934C53.702 11.262 52.382 10.206 50.446 10.206C48.466 10.206 47.278 11.064 47.278 12.45C47.278 15.97 56.078 13.682 56.078 19.842C56.078 22.46 53.856 24.176 50.49 24.176ZM64.2831 23.912C63.7331 24.11 63.1391 24.176 62.5451 24.176C60.6531 24.176 59.2671 23.12 59.2671 20.678V14.562H57.1991V12.912H59.2671V9.546H61.1371V12.912H64.1071V14.562H61.1371V20.744C61.1371 21.91 61.7971 22.482 62.7651 22.482C63.2051 22.482 63.7111 22.416 64.1511 22.196L64.2831 23.912ZM72.9553 14.738C72.5373 14.562 72.0093 14.474 71.5253 14.474C69.7653 14.474 68.3353 16.168 68.3353 19.776V24H66.4653V12.912H68.3353V15.156C68.9733 13.748 70.4253 12.736 71.7893 12.736C72.2513 12.736 72.6913 12.802 73.0653 12.934L72.9553 14.738ZM73.7335 18.456C73.7335 15.31 75.7575 12.736 79.1015 12.736C82.3795 12.736 84.4035 15.09 84.4035 17.95C84.4035 18.214 84.3815 18.61 84.3595 18.808H75.6035C75.7355 21.052 77.1435 22.526 79.1455 22.526C80.8395 22.526 82.0055 21.734 82.3355 20.348L84.0955 20.766C83.5455 22.922 81.6975 24.176 79.1455 24.176C75.8235 24.176 73.7335 21.602 73.7335 18.456ZM75.7135 17.246H82.4235C82.2475 15.552 81.0595 14.298 79.1015 14.298C77.3635 14.298 76.0875 15.398 75.7135 17.246ZM93.5455 16.784C93.5455 15.266 92.4675 14.298 90.8395 14.298C89.3215 14.298 88.2435 15.2 88.0895 16.696L86.3515 16.366C86.6815 14.166 88.5075 12.736 90.8395 12.736C93.5235 12.736 95.3935 14.32 95.3935 16.894V24H93.5455V22.108C92.9075 23.384 91.4555 24.176 89.8495 24.176C87.6275 24.176 86.1095 22.812 86.1095 20.898C86.1095 18.764 87.8475 17.598 91.3895 17.246L93.5455 17.004V16.784ZM87.9795 20.876C87.9795 21.91 88.8595 22.636 90.1355 22.636C92.2915 22.636 93.5455 21.206 93.5455 18.984V18.456L91.3895 18.698C89.1455 18.94 87.9795 19.71 87.9795 20.876ZM98.434 24V12.912H100.304V15.002C100.854 13.682 101.954 12.736 103.648 12.736C105.452 12.736 106.86 13.572 107.256 15.068C107.85 13.748 109.17 12.736 110.842 12.736C113.218 12.736 114.714 14.232 114.714 16.564V24H112.844V16.938C112.844 15.42 111.986 14.386 110.424 14.386C108.532 14.386 107.498 16.08 107.498 18.434V24H105.628V16.938C105.628 15.42 104.77 14.386 103.23 14.386C101.338 14.386 100.304 16.08 100.304 18.434V24H98.434ZM121.73 24V17.554L116.318 8.6H118.584L122.742 15.64L126.922 8.6H129.188L123.754 17.554V24H121.73ZM135.655 16.784C135.655 15.266 134.577 14.298 132.949 14.298C131.431 14.298 130.353 15.2 130.199 16.696L128.461 16.366C128.791 14.166 130.617 12.736 132.949 12.736C135.633 12.736 137.503 14.32 137.503 16.894V24H135.655V22.108C135.017 23.384 133.565 24.176 131.959 24.176C129.737 24.176 128.219 22.812 128.219 20.898C128.219 18.764 129.957 17.598 133.499 17.246L135.655 17.004V16.784ZM130.089 20.876C130.089 21.91 130.969 22.636 132.245 22.636C134.401 22.636 135.655 21.206 135.655 18.984V18.456L133.499 18.698C131.255 18.94 130.089 19.71 130.089 20.876ZM147.033 14.738C146.615 14.562 146.087 14.474 145.603 14.474C143.843 14.474 142.413 16.168 142.413 19.776V24H140.543V12.912H142.413V15.156C143.051 13.748 144.503 12.736 145.867 12.736C146.329 12.736 146.769 12.802 147.143 12.934L147.033 14.738ZM153.158 24.176C149.704 24.176 147.812 21.712 147.812 18.456C147.812 15.2 149.704 12.736 153.136 12.736C154.61 12.736 156.062 13.462 156.766 14.496V8.424H158.636V24H156.766V22.394C156.26 23.406 154.786 24.176 153.158 24.176ZM149.726 18.456C149.726 20.898 151.156 22.504 153.334 22.504C155.512 22.504 156.942 20.898 156.942 18.456C156.942 16.014 155.512 14.408 153.334 14.408C151.156 14.408 149.726 16.014 149.726 18.456ZM173.943 24.176C169.543 24.176 166.353 20.876 166.353 16.3C166.353 11.724 169.543 8.424 173.943 8.424C178.321 8.424 181.511 11.724 181.511 16.3C181.511 20.876 178.321 24.176 173.943 24.176ZM168.399 16.3C168.399 19.82 170.731 22.372 173.921 22.372C177.155 22.372 179.465 19.82 179.465 16.3C179.465 12.78 177.155 10.206 173.921 10.206C170.731 10.206 168.399 12.78 168.399 16.3ZM183.942 24V12.912H185.812V15.002C186.582 13.682 187.924 12.736 189.618 12.736C191.928 12.736 193.578 14.298 193.578 16.652V24H191.708V17.004C191.708 15.508 190.762 14.43 189.2 14.43C187.132 14.43 185.812 16.212 185.812 19.138V24H183.942ZM195.738 18.478V16.828H202.228V18.478H195.738ZM209.405 11.24L206.655 18.302H212.133L209.405 11.24ZM202.387 24L208.481 8.6H210.307L216.423 24H214.333L212.815 20.084H205.973L204.455 24H202.387ZM218.145 24V12.912H220.015V24H218.145ZM217.771 9.524C217.771 8.776 218.321 8.204 219.069 8.204C219.839 8.204 220.411 8.776 220.411 9.524C220.411 10.25 219.839 10.822 219.069 10.822C218.321 10.822 217.771 10.25 217.771 9.524ZM229.533 14.738C229.115 14.562 228.587 14.474 228.103 14.474C226.343 14.474 224.913 16.168 224.913 19.776V24H223.043V12.912H224.913V15.156C225.551 13.748 227.003 12.736 228.367 12.736C228.829 12.736 229.269 12.802 229.643 12.934L229.533 14.738Z" fill="white"/>
</svg>
