<svg width="19" height="23" viewBox="0 0 19 23" fill="none" xmlns="http://www.w3.org/2000/svg">
    <path fill-rule="evenodd" clip-rule="evenodd"
        d="M13.4468 21.0877C9.10106 21.5901 5.68995 20.9667 4.44255 20.5525C3.96369 20.3935 3.70438 19.8765 3.86336 19.3976C4.02235 18.9187 4.53942 18.6594 5.01828 18.8184C5.99046 19.1412 9.13135 19.7473 13.2369 19.2726C13.7382 19.2146 14.1915 19.574 14.2494 20.0752C14.3074 20.5764 13.948 21.0297 13.4468 21.0877Z"
        fill="white" />
    <path fill-rule="evenodd" clip-rule="evenodd"
        d="M2.4913 14.6474C2.32781 14.17 2.58224 13.6505 3.05958 13.4871C5.2964 12.721 11.3437 9.58975 16.8632 3.36539C17.1979 2.98787 17.7753 2.95321 18.1529 3.28797C18.5304 3.62274 18.565 4.20015 18.2303 4.57766C12.5031 11.0363 6.18944 14.3465 3.65162 15.2157C3.17428 15.3791 2.65479 15.1247 2.4913 14.6474Z"
        fill="white" />
    <path fill-rule="evenodd" clip-rule="evenodd"
        d="M0.627995 9.93718C0.202574 9.66589 0.0776261 9.10109 0.348916 8.67567C0.612837 8.26181 1.44478 6.33329 1.91939 2.68171C1.98442 2.18136 2.44275 1.82846 2.94311 1.8935C3.44346 1.95853 3.79636 2.41686 3.73132 2.91721C3.24163 6.68491 2.36122 8.91838 1.8895 9.6581C1.61821 10.0835 1.05342 10.2085 0.627995 9.93718Z"
        fill="white" />
</svg>