<svg
  xmlns="http://www.w3.org/2000/svg"
  title="Streamable Logo"
  viewBox="0 0 169 30"
>
  <path
    d="M 48.679 19.658 C 48.679 21.29 48.091 22.571 46.915 23.5 C 45.74 24.429 44.118 24.894 42.05 24.894 C 39.982 24.894 38.289 24.572 36.972 23.927 L 36.972 21.089 C 37.824 21.49 38.714 21.801 39.63 22.019 C 40.568 22.246 41.441 22.359 42.25 22.358 C 43.434 22.358 44.308 22.132 44.87 21.68 C 45.433 21.228 45.715 20.622 45.715 19.86 C 45.715 19.174 45.456 18.592 44.939 18.115 C 44.423 17.637 43.355 17.072 41.737 16.42 C 40.069 15.742 38.894 14.967 38.211 14.097 C 37.528 13.226 37.186 12.18 37.185 10.958 C 37.185 9.426 37.727 8.221 38.811 7.342 C 39.895 6.463 41.35 6.023 43.176 6.023 C 44.927 6.023 46.67 6.408 48.405 7.178 L 47.453 9.627 C 45.827 8.941 44.376 8.597 43.1 8.597 C 42.133 8.597 41.399 8.809 40.899 9.231 C 40.399 9.654 40.148 10.213 40.148 10.908 C 40.148 11.385 40.248 11.793 40.447 12.132 C 40.647 12.471 40.976 12.791 41.436 13.092 C 41.894 13.393 42.719 13.79 43.912 14.284 C 45.255 14.844 46.238 15.368 46.864 15.854 C 47.489 16.34 47.948 16.889 48.239 17.499 C 48.532 18.11 48.679 18.829 48.679 19.658 Z"
    fill="currentColor"
  ></path>
  <path
    d="M 56.29 22.508 C 57.021 22.506 57.746 22.392 58.442 22.169 L 58.442 24.392 C 58.117 24.534 57.698 24.653 57.185 24.749 C 56.659 24.847 56.125 24.895 55.59 24.894 C 52.805 24.894 51.412 23.421 51.413 20.474 L 51.413 12.991 L 49.524 12.991 L 49.524 11.685 L 51.55 10.605 L 52.551 7.667 L 54.365 7.667 L 54.365 10.757 L 58.305 10.757 L 58.305 12.992 L 54.364 12.992 L 54.364 20.424 C 54.364 21.136 54.541 21.661 54.896 22 C 55.25 22.338 55.715 22.508 56.29 22.508 Z"
    fill="currentColor"
  ></path>
  <path
    d="M 67.454 10.505 C 68.046 10.505 68.535 10.547 68.919 10.631 L 68.631 13.38 C 68.205 13.279 67.768 13.229 67.33 13.23 C 66.155 13.23 65.202 13.615 64.472 14.386 C 63.742 15.156 63.378 16.156 63.378 17.386 L 63.378 24.643 L 60.438 24.643 L 60.438 10.756 L 62.739 10.756 L 63.128 13.204 L 63.277 13.204 C 63.736 12.375 64.334 11.718 65.072 11.233 C 65.811 10.748 66.605 10.505 67.454 10.505 Z"
    fill="currentColor"
  ></path>
  <path
    d="M 76.652 24.894 C 74.5 24.894 72.818 24.264 71.605 23.004 C 70.392 21.744 69.785 20.009 69.785 17.8 C 69.785 15.531 70.348 13.748 71.474 12.451 C 72.6 11.153 74.147 10.505 76.114 10.504 C 77.94 10.504 79.383 11.061 80.442 12.175 C 81.501 13.288 82.031 14.82 82.03 16.77 L 82.03 18.364 L 72.812 18.364 C 72.854 19.712 73.217 20.748 73.9 21.472 C 74.584 22.196 75.547 22.558 76.79 22.558 C 77.606 22.558 78.367 22.481 79.072 22.326 C 79.777 22.171 80.534 21.914 81.344 21.554 L 81.344 23.952 C 80.652 24.287 79.921 24.531 79.167 24.68 C 78.432 24.822 77.594 24.894 76.652 24.894 Z M 76.114 12.74 C 75.18 12.74 74.432 13.037 73.869 13.631 C 73.306 14.226 72.97 15.092 72.862 16.23 L 79.141 16.23 C 79.124 15.084 78.849 14.215 78.316 13.625 C 77.782 13.035 77.048 12.74 76.114 12.74 Z"
    fill="currentColor"
  ></path>
  <path
    d="M 93.154 24.643 L 92.566 22.709 L 92.466 22.709 C 91.799 23.555 91.128 24.13 90.453 24.436 C 89.777 24.741 88.911 24.894 87.853 24.894 C 86.493 24.894 85.432 24.526 84.669 23.789 C 83.906 23.052 83.524 22.01 83.522 20.662 C 83.522 19.231 84.052 18.151 85.111 17.422 C 86.17 16.694 87.783 16.296 89.952 16.23 L 92.341 16.154 L 92.341 15.414 C 92.341 14.526 92.135 13.863 91.722 13.423 C 91.309 12.984 90.669 12.764 89.802 12.763 C 89.11 12.761 88.423 12.867 87.763 13.077 C 87.123 13.283 86.496 13.53 85.887 13.818 L 84.937 11.709 C 85.716 11.305 86.544 11.003 87.401 10.811 C 88.293 10.606 89.135 10.504 89.927 10.503 C 91.686 10.503 93.014 10.888 93.911 11.659 C 94.808 12.429 95.256 13.639 95.256 15.289 L 95.256 24.643 Z M 88.777 22.633 C 89.844 22.633 90.701 22.333 91.347 21.735 C 91.992 21.137 92.316 20.297 92.316 19.217 L 92.316 18.012 L 90.54 18.087 C 89.156 18.138 88.149 18.37 87.519 18.784 C 86.89 19.198 86.575 19.832 86.575 20.686 C 86.575 21.306 86.758 21.786 87.125 22.124 C 87.492 22.462 88.043 22.632 88.777 22.634 Z"
    fill="currentColor"
  ></path>
  <path
    d="M 110.144 24.643 L 107.191 24.643 L 107.191 16.08 C 107.191 15.017 106.991 14.224 106.591 13.7 C 106.191 13.177 105.565 12.915 104.715 12.916 C 103.581 12.916 102.749 13.286 102.219 14.026 C 101.69 14.766 101.425 15.998 101.425 17.723 L 101.425 24.641 L 98.486 24.641 L 98.486 10.756 L 100.787 10.756 L 101.2 12.577 L 101.349 12.577 C 101.733 11.915 102.289 11.405 103.019 11.045 C 103.749 10.685 104.552 10.505 105.427 10.505 C 107.553 10.505 108.962 11.233 109.655 12.69 L 109.854 12.69 C 110.263 12.003 110.839 11.468 111.581 11.083 C 112.323 10.698 113.173 10.505 114.132 10.505 C 115.783 10.505 116.986 10.923 117.741 11.761 C 118.495 12.598 118.873 13.874 118.873 15.59 L 118.873 24.643 L 115.933 24.643 L 115.933 16.08 C 115.933 15.017 115.731 14.224 115.327 13.7 C 114.922 13.177 114.295 12.915 113.444 12.916 C 112.301 12.916 111.465 13.273 110.936 13.989 C 110.407 14.705 110.142 15.803 110.142 17.285 Z"
    fill="currentColor"
  ></path>
  <path
    d="M 130.761 24.643 L 130.173 22.709 L 130.073 22.709 C 129.406 23.555 128.735 24.13 128.059 24.436 C 127.384 24.741 126.517 24.894 125.458 24.894 C 124.099 24.894 123.037 24.526 122.274 23.789 C 121.511 23.052 121.13 22.01 121.13 20.662 C 121.13 19.231 121.66 18.151 122.719 17.422 C 123.777 16.694 125.391 16.296 127.56 16.23 L 129.949 16.154 L 129.949 15.414 C 129.949 14.526 129.742 13.863 129.33 13.423 C 128.917 12.984 128.277 12.764 127.41 12.763 C 126.718 12.761 126.03 12.867 125.371 13.077 C 124.73 13.283 124.104 13.53 123.495 13.818 L 122.544 11.709 C 123.324 11.305 124.152 11.003 125.008 10.811 C 125.901 10.606 126.743 10.504 127.535 10.503 C 129.294 10.503 130.622 10.888 131.519 11.659 C 132.416 12.429 132.864 13.639 132.864 15.289 L 132.864 24.643 Z M 126.384 22.633 C 127.451 22.633 128.308 22.333 128.954 21.735 C 129.6 21.137 129.923 20.297 129.923 19.217 L 129.923 18.012 L 128.147 18.087 C 126.763 18.138 125.756 18.37 125.127 18.784 C 124.497 19.198 124.182 19.832 124.182 20.686 C 124.182 21.306 124.366 21.786 124.732 22.124 C 125.099 22.462 125.65 22.632 126.384 22.634 Z"
    fill="currentColor"
  ></path>
  <path
    d="M 143.161 10.505 C 144.887 10.505 146.232 11.133 147.196 12.388 C 148.16 13.644 148.641 15.406 148.641 17.674 C 148.641 19.951 148.152 21.724 147.176 22.992 C 146.2 24.26 144.845 24.894 143.112 24.894 C 141.361 24.894 140.002 24.262 139.034 22.998 L 138.834 22.998 L 138.296 24.643 L 136.095 24.643 L 136.095 5.106 L 139.034 5.106 L 139.034 9.752 C 139.034 10.095 139.018 10.605 138.984 11.283 C 138.951 11.961 138.926 12.392 138.909 12.577 L 139.034 12.577 C 139.968 11.195 141.343 10.505 143.161 10.505 Z M 142.398 12.916 C 141.214 12.916 140.362 13.266 139.841 13.966 C 139.319 14.666 139.05 15.836 139.034 17.476 L 139.034 17.676 C 139.034 19.367 139.301 20.591 139.834 21.349 C 140.368 22.106 141.239 22.485 142.448 22.485 C 143.491 22.485 144.281 22.071 144.819 21.242 C 145.356 20.413 145.625 19.216 145.625 17.651 C 145.625 14.494 144.55 12.916 142.398 12.916 Z"
    fill="currentColor"
  ></path>
  <path
    d="M 154.123 24.643 L 151.182 24.643 L 151.182 5.106 L 154.122 5.106 Z"
    fill="currentColor"
  ></path>
  <path
    d="M 163.598 24.894 C 161.446 24.894 159.764 24.264 158.551 23.004 C 157.339 21.744 156.732 20.009 156.731 17.8 C 156.731 15.531 157.294 13.748 158.42 12.451 C 159.546 11.153 161.092 10.505 163.06 10.504 C 164.886 10.504 166.329 11.061 167.388 12.175 C 168.447 13.288 168.977 14.82 168.976 16.77 L 168.976 18.364 L 159.759 18.364 C 159.801 19.712 160.164 20.748 160.848 21.472 C 161.531 22.196 162.495 22.558 163.737 22.558 C 164.554 22.558 165.315 22.481 166.02 22.326 C 166.725 22.171 167.482 21.914 168.291 21.554 L 168.291 23.952 C 167.599 24.287 166.868 24.531 166.115 24.68 C 165.379 24.822 164.54 24.894 163.598 24.894 Z M 163.06 12.74 C 162.126 12.74 161.378 13.037 160.815 13.631 C 160.252 14.226 159.916 15.092 159.808 16.23 L 166.087 16.23 C 166.07 15.084 165.795 14.215 165.261 13.625 C 164.728 13.035 163.994 12.74 163.06 12.74 Z"
    fill="currentColor"
  ></path>
  <path
    d="M 14.943 30 C 23.195 30 29.885 23.284 29.885 15 C 29.885 6.716 23.195 0 14.943 0 C 6.69 0 0 6.715 0 15 C 0 23.285 6.69 30 14.943 30 Z M 18.009 8.82 C 18.678 8.359 19.24 8.126 19.994 7.987 C 20.565 7.884 22.06 8.009 22.676 8.211 C 23.572 8.507 24.165 8.802 24.83 9.286 C 26.079 10.202 26.988 11.51 27.413 13.003 C 27.721 14.091 27.721 15.506 27.409 16.689 C 27.114 17.799 26.325 19.161 25.459 20.039 C 24.745 20.759 23.679 21.422 22.738 21.722 C 21.722 22.049 20.842 22.148 19.899 22.036 C 19.203 21.955 19.029 21.919 18.418 21.722 C 17.575 21.452 16.169 20.625 16.263 20.455 C 16.281 20.419 16.678 19.819 17.142 19.12 L 17.99 17.849 L 18.19 18.029 C 18.489 18.299 19.016 18.588 19.416 18.719 C 20.741 19.135 22.133 18.817 23.127 17.868 C 23.658 17.366 24.002 16.788 24.194 16.072 C 24.313 15.624 24.305 14.639 24.176 14.164 C 23.77 12.659 22.744 11.669 21.361 11.45 C 19.964 11.226 18.925 11.92 17.511 14.012 C 17.328 14.282 16.873 15.006 16.494 15.624 C 14.795 18.405 13.974 19.494 12.836 20.456 C 12.038 21.137 11.36 21.5 10.386 21.768 C 9.984 21.881 9.899 21.888 9.021 21.888 C 8.191 21.888 8.034 21.88 7.66 21.785 C 6.644 21.539 6.031 21.279 5.264 20.765 C 3.703 19.722 2.69 18.159 2.297 16.184 C 2.208 15.723 2.222 14.24 2.324 13.743 C 2.45 13.163 2.636 12.597 2.877 12.055 C 3.565 10.568 4.889 9.295 6.424 8.656 C 8.061 7.966 9.873 7.939 11.586 8.58 C 12.112 8.772 13.067 9.337 13.451 9.677 L 13.638 9.847 L 12.768 11.146 C 12.29 11.858 11.88 12.449 11.854 12.458 C 11.827 12.467 11.764 12.428 11.711 12.364 C 11.523 12.162 11.001 11.794 10.707 11.657 C 9.636 11.155 8.495 11.159 7.468 11.67 C 7.009 11.898 6.718 12.118 6.353 12.512 C 6.024 12.87 5.835 13.211 5.688 13.721 C 5.608 13.999 5.594 14.169 5.594 14.729 C 5.599 15.351 5.608 15.427 5.733 15.803 C 5.947 16.453 6.211 16.883 6.696 17.375 C 7.446 18.132 8.362 18.476 9.446 18.405 C 10.035 18.37 10.419 18.222 10.958 17.828 C 11.444 17.474 11.971 16.932 12.417 16.319 C 12.988 15.539 13.171 15.257 14.126 13.685 C 15.818 10.893 16.827 9.627 18.009 8.82 Z"
    fill="currentColor"
  ></path>
</svg>
