<?xml version="1.0" standalone="no"?>
<!DOCTYPE svg PUBLIC "-//W3C//DTD SVG 20010904//EN"
 "http://www.w3.org/TR/2001/REC-SVG-20010904/DTD/svg10.dtd">
<svg version="1.0" xmlns="http://www.w3.org/2000/svg"
 width="1024.000000pt" height="1024.000000pt" viewBox="0 0 1024.000000 1024.000000"
 preserveAspectRatio="xMidYMid meet">
<g transform="translate(0.000000,1024.000000) scale(0.100000,-0.100000)"
fill="#000000" stroke="none">
<path d="M2716 9413 c-3 -3 -24 -7 -48 -9 -24 -1 -43 -3 -43 -4 0 -2 -34 -8
-82 -15 -23 -3 -76 -16 -119 -30 -44 -14 -83 -25 -87 -25 -15 0 -200 -90 -242
-118 -126 -83 -248 -204 -327 -322 -30 -47 -123 -224 -129 -248 -1 -4 -3 -11
-5 -17 -26 -81 -46 -157 -50 -188 -11 -73 -20 -92 -42 -91 -12 0 -22 -2 -22
-5 0 -3 -17 -6 -38 -7 -49 0 -120 -12 -247 -39 -111 -23 -315 -110 -412 -175
-24 -17 -46 -30 -49 -30 -3 0 -11 -6 -18 -12 -7 -7 -28 -24 -46 -38 -50 -37
-191 -178 -236 -235 -21 -27 -42 -51 -46 -53 -5 -2 -8 -7 -8 -12 0 -4 -20 -38
-45 -74 -48 -72 -154 -285 -175 -351 -7 -22 -15 -44 -19 -50 -3 -5 -7 -17 -8
-26 -1 -9 -8 -29 -14 -45 -7 -16 -13 -33 -14 -39 -2 -5 -8 -30 -16 -55 -7 -25
-14 -51 -15 -59 -1 -7 -8 -34 -14 -60 -6 -25 -13 -57 -15 -71 -14 -68 -17 -87
-20 -105 -2 -19 -12 -84 -20 -135 -3 -23 -11 -106 -22 -230 -7 -85 -10 -710
-3 -710 3 0 7 -20 9 -44 1 -25 4 -55 6 -68 3 -13 8 -43 11 -68 3 -25 9 -61 14
-80 5 -19 11 -46 14 -60 2 -14 13 -50 22 -80 10 -30 18 -57 19 -60 0 -3 6 -15
13 -27 7 -13 10 -23 7 -23 -12 0 90 -185 142 -257 81 -113 296 -332 326 -333
10 0 5 -60 -5 -66 -5 -3 -6 -9 -4 -13 3 -4 1 -24 -5 -44 -5 -21 -12 -49 -14
-65 -2 -15 -7 -38 -10 -52 -3 -14 -8 -41 -11 -60 -8 -47 -12 -65 -14 -65 -1 0
-4 -11 -5 -25 -5 -33 -11 -67 -20 -110 -4 -19 -9 -46 -10 -60 -2 -14 -4 -25
-5 -25 -1 0 -3 -15 -5 -34 -2 -19 -7 -46 -11 -60 -3 -14 -8 -39 -10 -56 -1
-16 -5 -43 -9 -60 -3 -16 -8 -48 -11 -70 -7 -55 -12 -87 -17 -110 -3 -11 -8
-42 -11 -70 -4 -27 -12 -79 -18 -115 -5 -36 -10 -72 -10 -80 0 -8 -4 -35 -8
-60 -5 -25 -12 -76 -15 -115 -4 -38 -9 -73 -11 -76 -1 -3 -6 -32 -9 -65 -3
-32 -8 -70 -10 -84 -2 -14 -7 -56 -11 -95 -3 -38 -8 -79 -10 -90 -5 -26 -12
-79 -19 -145 -3 -30 -8 -77 -11 -105 -3 -27 -7 -68 -9 -90 -2 -39 -11 -121
-21 -215 -11 -109 -22 -221 -29 -320 -5 -68 -14 -153 -17 -169 -4 -15 17 -57
46 -90 86 -98 270 -270 315 -295 9 -5 18 -12 21 -15 14 -17 120 -91 120 -84 0
4 4 3 8 -2 11 -16 87 -65 100 -65 7 0 12 -3 12 -7 0 -5 10 -13 23 -19 12 -6
67 -33 122 -61 84 -43 181 -86 280 -123 45 -17 149 -52 164 -55 9 -2 17 -4 19
-5 1 -2 5 -3 10 -4 4 -1 57 -14 117 -29 61 -14 121 -28 135 -31 14 -2 41 -7
60 -10 19 -3 49 -8 65 -12 17 -3 48 -7 70 -9 22 -2 76 -7 120 -12 146 -15 545
-8 595 11 8 3 38 8 65 11 28 2 88 14 135 25 107 26 115 28 115 30 0 1 7 3 15
5 123 25 402 157 553 261 43 30 82 54 87 54 5 0 10 3 12 8 2 4 41 39 88 78 82
70 224 212 265 265 11 14 40 53 65 85 54 71 87 118 110 159 70 121 88 155 83
155 -3 0 0 6 6 14 9 11 8 27 -5 73 -22 73 -22 74 -30 153 -8 78 -12 272 -6
283 2 4 5 34 7 65 3 49 8 84 31 217 20 120 79 327 107 380 6 11 11 23 12 27 0
3 20 37 45 75 49 74 149 180 199 209 17 10 31 21 31 24 0 3 17 14 38 25 20 11
39 22 42 26 22 25 261 107 360 123 19 3 46 8 59 10 23 5 121 -49 121 -66 0 -5
6 -8 14 -8 8 0 16 -3 18 -7 13 -30 823 -543 857 -543 6 0 11 -4 11 -8 0 -5 15
-16 33 -25 53 -29 126 -70 255 -145 68 -40 127 -72 132 -72 4 0 10 -3 12 -7 2
-5 17 -15 33 -24 82 -42 140 -74 145 -80 3 -3 31 -19 63 -35 98 -49 112 -57
117 -63 3 -3 32 -19 65 -35 33 -17 72 -38 88 -49 15 -10 27 -15 27 -11 0 3 6
2 13 -4 14 -11 65 -40 182 -102 44 -23 86 -46 93 -52 6 -6 12 -7 12 -3 0 4 6
3 13 -3 11 -9 476 -247 487 -249 14 -3 86 -39 91 -46 3 -5 8 -8 10 -6 4 2 33
-10 124 -51 84 -39 250 -98 282 -102 5 0 19 -5 33 -10 28 -11 52 -17 95 -24
17 -3 37 -8 45 -11 8 -3 31 -8 50 -10 19 -2 62 -8 95 -12 61 -9 249 -6 295 3
14 3 35 8 48 11 12 3 32 7 44 10 55 12 170 77 213 120 105 107 163 298 133
439 -16 76 -59 164 -112 229 l-48 58 43 -5 c24 -4 62 -8 84 -11 22 -2 67 -9
100 -14 33 -5 121 -8 195 -7 152 3 227 22 309 79 80 54 134 130 170 242 24 72
37 223 21 254 -4 9 -18 43 -31 76 -49 129 -203 310 -419 494 -41 35 -76 68
-78 72 -2 5 -9 9 -16 9 -6 0 -19 8 -28 18 -19 20 -17 18 -128 102 -47 35 -89
68 -95 72 -5 5 -44 33 -85 63 -41 30 -80 59 -87 65 -7 5 -16 10 -22 10 -5 0
-11 3 -13 8 -1 4 -34 30 -73 57 -38 27 -72 51 -75 54 -3 3 -13 11 -22 16 -9 6
-52 34 -95 64 -43 30 -105 73 -138 95 -33 23 -64 47 -68 53 -4 7 -14 13 -22
13 -7 0 -15 3 -17 8 -1 4 -43 36 -93 72 -102 73 -364 280 -400 316 -13 13 -27
24 -30 24 -4 0 -12 6 -19 13 -7 6 -45 40 -84 75 -206 184 -287 259 -459 427
-91 88 -201 198 -246 244 -45 46 -110 111 -143 146 -63 63 -69 74 -79 135 -3
19 -10 55 -15 80 -5 25 -12 57 -15 73 -5 27 -15 74 -19 92 -12 47 -22 84 -48
175 -17 58 -31 110 -33 115 -1 6 -4 17 -7 25 -3 8 -16 44 -28 80 -12 36 -32
88 -45 115 -12 28 -26 61 -30 75 -14 47 -180 379 -202 405 -5 6 -12 17 -16 25
-11 21 -21 37 -116 190 -89 142 -131 203 -143 208 -5 2 -8 8 -8 14 0 33 -292
331 -410 418 -18 14 -45 34 -59 46 -14 11 -62 45 -106 74 -44 30 -92 62 -107
72 -15 10 -32 18 -38 18 -5 0 -10 3 -10 8 0 4 -10 12 -23 18 -12 6 -79 41
-148 78 -69 36 -132 66 -140 67 -8 0 -32 37 -53 81 -60 121 -178 257 -285 328
-13 8 -35 25 -49 37 -15 13 -30 23 -34 23 -4 0 -32 16 -62 35 -29 19 -56 32
-58 29 -3 -2 -11 2 -18 11 -7 8 -16 15 -21 15 -5 0 -42 15 -82 34 -113 54
-294 115 -458 155 -93 23 -98 25 -199 46 -86 18 -212 41 -285 50 -27 4 -59 8
-70 10 -61 9 -116 16 -165 21 -30 2 -73 7 -95 9 -22 3 -59 6 -82 9 -22 2 -46
7 -52 10 -6 4 -11 2 -11 -4 0 -6 -4 -9 -9 -6 -5 3 -28 8 -52 12 -59 7 -526 14
-533 7z"/>
</g>
</svg>
