<svg fill="none" height="406" viewBox="0 0 600 406" width="600" xmlns="http://www.w3.org/2000/svg" xmlns:xlink="http://www.w3.org/1999/xlink"><clipPath id="a"><path d="m0 0h600v405.882h-600z"/></clipPath><g clip-path="url(#a)"><path d="m0 25c0-13.8071 11.1929-25 25-25h550c13.807 0 25 11.1929 25 25v355.882c0 13.808-11.193 25-25 25h-550c-13.8071 0-25-11.193-25-25z" fill="#168cc7"/><path d="m102 203.722c-.207-3.358.751-6.682 2.7-9.367 1.078-.889 2.296-1.575 3.6-2.029 1.315-.656 2.743-1.027 4.2-1.093h16.65c1.546-.182 3.112.006 4.578.55 1.465.545 2.792 1.431 3.877 2.591 1.086 1.16 1.902 2.564 2.387 4.103.484 1.539.624 3.173.408 4.776v24.353c-.018 1.397-.321 2.774-.89 4.039s-1.391 2.39-2.41 3.298c-2.064 2.035-4.807 3.155-7.65 3.123h-15.75v17.64h-11.7zm26.7 2.341c.043-.373.008-.752-.101-1.111s-.29-.69-.531-.97c-.241-.281-.537-.505-.868-.657-.33-.153-.688-.23-1.05-.228h-9.15c-.459-.054-.924.003-1.359.167-.434.164-.826.43-1.146.778-.319.347-.557.767-.695 1.226s-.172.945-.1 1.42v16.235c0 2.186 1.35 3.278 3.6 3.434h8.4c.393.004.783-.078 1.144-.239.362-.161.687-.399.956-.697.279-.218.506-.501.662-.826.157-.325.238-.684.238-1.047zm47.85-.312c0-1.717-.9-2.654-3-2.654h-23.55v-11.864h26.4c7.7.208 11.6 3.903 11.7 11.084v24.977c.008 2.908-1.068 5.706-3 7.806-.975 1.032-2.144 1.842-3.435 2.379-1.291.538-2.675.791-4.065.743h-16.05c-7.7 0-11.65-3.539-11.85-10.616v-9.522c.1-7.285 3.9-11.032 11.4-11.24h15.45zm-15 18.733c-.044.353.002.713.134 1.041.131.329.344.616.616.832.304.283.661.498 1.048.632s.796.185 1.202.149h9c1.95 0 3-.937 3-2.654v-3.59c0-1.874-1.05-2.966-3.15-2.966h-9c-.844-.069-1.686.15-2.4.624-.511.834-.723 1.829-.6 2.81zm59.4 19.358c.827-.056 1.615-.384 2.25-.937.299-.21.549-.488.731-.812.181-.324.291-.687.319-1.061v-2.81h-15c-1.583.046-3.161-.219-4.65-.781-1.403-.552-2.68-1.403-3.75-2.498-1.089-1.117-1.944-2.456-2.512-3.934-.567-1.477-.836-3.061-.788-4.652v-35.124h11.7v31.222c0 2.654 1.05 3.902 3 3.902h8.4c.932.029 1.842-.305 2.55-.936.319-.226.581-.528.763-.881.183-.354.281-.747.287-1.149v-32.158h11.55v51.828c.085 3.344-.978 6.61-3 9.21-1.005 1.141-2.237 2.04-3.61 2.633s-2.854.867-4.34.802h-27.3v-11.864zm24-17.485h20.7c1.95 0 3-.78 3-2.341v-.937c-.012-.384-.115-.759-.3-1.093-.114-.375-.331-.708-.624-.957-.293-.25-.65-.405-1.026-.448h-10.35c-2.878-.02-5.651-1.13-7.8-3.122-1.024-.775-1.866-1.782-2.464-2.945-.597-1.162-.934-2.45-.986-3.767v-8.899c.1-6.868 3.9-10.407 11.4-10.615h24v11.864h-20.4c-2.4 0-3.6.781-3.6 2.186v1.249c0 1.457 1.25 2.185 3.75 2.185h10.2c2.642.079 5.154 1.206 7.023 3.151 1.868 1.944 2.952 4.559 3.027 7.308v8.586c-.185 2.788-1.362 5.404-3.3 7.338-.909 1.076-2.036 1.929-3.3 2.497-1.457.463-2.977.674-4.5.625h-24.45zm70.65-20.606c0-1.717-.9-2.654-3-2.654h-23.55v-11.864h26.4c7.7.208 11.6 3.903 11.7 11.084v24.977c.008 2.908-1.067 5.706-3 7.806-.975 1.032-2.144 1.842-3.435 2.379-1.291.538-2.675.791-4.065.743h-16.05c-7.7 0-11.65-3.539-11.85-10.616v-9.522c.1-7.285 3.9-11.032 11.4-11.24h15.45zm-15 18.733c-.044.353.002.713.134 1.041.132.329.344.616.616.832.578.532 1.33.811 2.1.781h9c2.1 0 3-.937 3.15-2.654v-3.59c0-1.874-1.05-2.966-3.15-2.966h-9c-.845-.081-1.691.139-2.4.624-.511.834-.723 1.829-.6 2.81zm36-39.964c-.023-1.502.29-2.99.915-4.345.624-1.354 1.544-2.539 2.685-3.46 2.592-2.004 5.777-2.998 9-2.81h7.5v11.396h-4.5c-2.55 0-3.9 1.249-3.9 3.434v2.498h8.25v12.02h-8.25v34.969h-11.7zm38.7 37.779v.78c-.029.802.239 1.585.75 2.186.118.316.324.588.591.782.267.195.583.303.909.31h24v11.865h-25.5c-1.82.07-3.639-.14-5.4-.625-1.402-.48-2.683-1.28-3.75-2.341-1.122-1.022-1.996-2.306-2.55-3.747-.545-1.764-.799-3.611-.75-5.464v-23.728c0-7.285 3.75-10.928 11.25-10.928h15.75c1.465-.17 2.947.003 4.34.505 1.392.503 2.659 1.322 3.709 2.399 1.049 1.077 1.854 2.385 2.356 3.827s.688 2.982.545 4.509v9.366zm14.4-16.392v-.312c.006-.326-.058-.65-.188-.947s-.322-.56-.562-.77c-.546-.484-1.234-.759-1.95-.781h-8.1c-.476-.02-.95.068-1.39.256-.44.189-.836.474-1.16.837-.373.291-.675.668-.883 1.102-.209.433-.317.911-.317 1.396v5.62zm36.6 32.315c-1.611.002-3.218-.155-4.8-.469-1.765-.32-3.423-1.104-4.814-2.279-1.392-1.175-2.471-2.701-3.136-4.433-.702-1.838-1.058-3.799-1.05-5.776v-22.324c-.061-1.585.142-3.17.6-4.683.468-1.537 1.292-2.931 2.4-4.059 1.255-1.307 2.801-2.272 4.5-2.81 1.621-.408 3.282-.617 4.95-.624h18v2.81h-17.55c-2.576-.164-5.139.489-7.35 1.873-.987.87-1.75 1.982-2.222 3.236-.471 1.253-.635 2.609-.478 3.945v22.167c.01 1.542.263 3.072.75 4.528.49 1.436 1.314 2.723 2.4 3.746 1.117.847 2.396 1.432 3.75 1.717 1.38.31 2.788.466 4.2.469h16.5v2.81h-16.65zm65.25-12.801c.029 1.567-.071 3.134-.3 4.683-.446 1.639-1.27 3.139-2.4 4.371-1.167 1.242-2.571 2.216-4.12 2.861-1.55.645-3.212.947-4.88.886h-13.95c-3.276.219-6.505-.901-9-3.122-1.188-1.113-2.116-2.492-2.714-4.034-.597-1.542-.849-3.206-.736-4.865v-7.181c-.173-1.691.025-3.4.579-5s1.45-3.048 2.62-4.235c1.169-1.187 2.583-2.083 4.133-2.62 1.551-.536 3.198-.699 4.818-.477h23.25v-3.122c.026-2.443-.77-4.818-2.25-6.713-.818-1.211-1.968-2.136-3.3-2.654-1.475-.352-2.987-.51-4.5-.468h-25.2v-2.81h24c2.009-.01 4.015.146 6 .468.911.186 1.777.558 2.55 1.093.877.572 1.641 1.314 2.25 2.185 2.086 2.634 3.203 5.954 3.15 9.367zm-2.85-15.923h-23.4c-1.204-.057-2.407.135-3.539.563-1.133.429-2.173 1.086-3.061 1.934-.841.938-1.488 2.045-1.901 3.254-.412 1.208-.582 2.492-.499 3.771v7.025c-.013 1.264.139 2.525.45 3.747.379 1.281 1.175 2.385 2.25 3.122 1.859 1.596 4.19 2.478 6.6 2.498h14.4c1.223.183 2.47.066 3.642-.34s2.237-1.09 3.11-1.999c.874-.91 1.532-2.018 1.922-3.238s.502-2.517.326-3.79zm29.1-15.767c-1.353-.17-2.726-.007-4.007.477-1.281.483-2.436 1.274-3.37 2.306-.934 1.033-1.622 2.28-2.008 3.641-.386 1.36-.46 2.796-.215 4.191v33.876h-2.85v-33.876c-.284-1.83-.146-3.704.401-5.468.548-1.764 1.491-3.367 2.75-4.678 1.26-1.311 2.8-2.291 4.495-2.861 1.695-.571 3.496-.714 5.254-.418h3v2.81zm49.95 31.378c-.3 8.95-5.1 13.321-14.4 13.113h-10.35c-1.96.043-3.919-.114-5.85-.469-1.954-.592-3.716-1.725-5.1-3.278-1.174-1.32-2-2.933-2.4-4.683-.406-1.683-.558-3.421-.45-5.152v-20.138c.1-9.054 4.7-13.529 13.8-13.425h21.9v-15.455h2.85zm-2.85-31.222h-21.9c-1.463-.032-2.924.126-4.35.468-1.442.384-2.746 1.198-3.75 2.342-1.046.965-1.823 2.205-2.25 3.59-.468 1.404-.672 2.888-.6 4.371v21.543c-.148 1.421.082 2.856.664 4.149.582 1.294 1.493 2.397 2.636 3.188 1.08.637 2.242 1.11 3.45 1.405 1.426.345 2.887.502 4.35.469h9.6c3.128.149 6.223-.724 8.85-2.498 1.163-.926 2.087-2.139 2.689-3.528.603-1.39.864-2.913.761-4.434z" fill="#fff"/><g fill="#e3001b"><path d="m37.2 189.516c.9173-.411 1.8722-.725 2.85-.937.9183-4.03 3.1258-7.616 6.2603-10.169 3.1344-2.553 7.0097-3.922 10.9897-3.881 4.0056-.076 7.9158 1.276 11.0811 3.831 3.1653 2.556 5.3951 6.162 6.3189 10.219 2.3863.399 4.6193 1.48 6.45 3.122.0777-1.458.0275-2.921-.15-4.371-.6702-6.014-3.4692-11.553-7.851-15.536s-10.0322-6.125-15.849-6.007c-5.9923-.133-11.8026 2.147-16.2185 6.364-4.4159 4.218-7.0962 10.047-7.4815 16.272-.0594 1.144-.0594 2.291 0 3.434 1.0884-.952 2.3003-1.74 3.6-2.341"/><path d="m71.25 191.233h-28.5c-1.4565.066-2.8852.437-4.2 1.093-1.3146.501-2.5335 1.241-3.6 2.185-1.9144 2.644-2.8706 5.905-2.7 9.211v22.011c-.2068 3.358.7513 6.682 2.7 9.367 1.0646.946 2.284 1.687 3.6 2.185 1.328.594 2.7548.912 4.2.937h28.5c1.5462.182 3.112-.006 4.5776-.551 1.4656-.544 2.792-1.43 3.8778-2.59 1.0857-1.16 1.9021-2.564 2.3865-4.103.4843-1.539.624-3.173.4081-4.777v-22.948c.2159-1.603.0762-3.237-.4081-4.776-.4844-1.539-1.3008-2.943-2.3865-4.103-1.0858-1.16-2.4122-2.046-3.8778-2.591-1.4656-.544-3.0314-.732-4.5776-.55"/></g></g></svg>