<svg viewBox="0 0 250 125" xmlns="http://www.w3.org/2000/svg" xmlns:xlink="http://www.w3.org/1999/xlink"><linearGradient id="a" gradientUnits="userSpaceOnUse" x1="115.08" x2="55.24" y1="72.11" y2="44.37"><stop offset=".09" stop-color="#708ff6"/><stop offset="1" stop-color="#5072d7"/></linearGradient><linearGradient id="b" gradientUnits="userSpaceOnUse" x1="147.55" x2="137.27" y1="32.93" y2="67.42"><stop offset="0" stop-color="#5072d7"/><stop offset=".76" stop-color="#708ff6"/></linearGradient><linearGradient id="c" gradientUnits="userSpaceOnUse" x1="109.23" x2="89.85" y1="135.25" y2="75.63"><stop offset=".16" stop-color="#6bf"/><stop offset=".71" stop-color="#8bd8ff"/></linearGradient><path d="m187.81 35.58h-66.06c-.5 0-.96.31-1.14.78l-19.32 49.07 66.87.07 19.66-49.91z" fill="#5e403b"/><path d="m183.14 38.79-59.72-.1-19.09 47.59 59.96-.14z"/><path d="m125.4 50.79-33.97-1.68s-11.69-5.95-22.01-10.49c-5.42-2.39-7.81-2.55-9.14-.46-.48.76-.39 1.91-.23 2.94s-.15 1.24-1.01 1.55c-1.04.38-6.27 1.94-5.65 6.35.28 2 2.17 3.89 4.95 4.57 4.49 1.08 7.82.62 9.68 1.55 1.94.97 10.49 6.33 19.9 13.24 0 0 1.24 13.43 8.08 21.03h46.11c-2.78-21.63-16.71-38.59-16.71-38.59z" fill="url(#a)"/><path d="m89.8 50.25 32.45.33c-5.29 5.45-15.15 8.5-23 7-8.05-1.55-9.46-7.32-9.46-7.32z" fill="#405bd1"/><path d="m119.48 16.09c1.08-.96 1.73-2.23 1.73-3.63 0-2.27-1.72-4.21-4.17-5.01-.7-.23-1.46-.36-2.25-.39-.07 0-.15 0-.23 0-3.67 0-5.26 1.91-8.06 4.55-1.69 1.59-4.2 3.35-6.18 4.65z" fill="#83ed91"/><path d="m109.06 17.81c-.52 0-1.02-.27-1.3-.75-.42-.72-.17-1.63.54-2.05 4.16-2.42 7.06-6.67 7.95-11.66.15-.82.92-1.36 1.74-1.21s1.36.93 1.21 1.74c-1.05 5.85-4.47 10.85-9.4 13.72-.24.14-.5.2-.75.2z" fill="#3e8a46"/><path d="m125.48 53.19s19.87-23.01 23.61-26.37c1.95-1.74 3.84-2.38 4.74-1.16.74 1 .98 2.68.98 2.68 4.89-.75 8.08 1.36 8.47 4.31.58 4.4-6.05 7.49-7.05 9.01-2.6 3.95-9.35 13.06-14.78 20.21-3.35 4.41-8.15 8.82-14.53 11.15l-1.45-19.84z" fill="url(#b)"/><path d="m112.5 16.28-14.63.18c-4.76-1.13-7.43-4.58-7.15-8.84.2-3.11 3.11-5.69 6.95-5.64 4.45.05 6.3 2.97 8.12 5.5 4.04 5.63 6.71 8.8 6.71 8.8z" fill="#62c781"/><path d="m106.65 20.46c-.27 0-.54-.07-.78-.22-5.16-3.16-8.87-7.43-10.18-11.73-.24-.79.2-1.63 1-1.87.79-.24 1.63.2 1.87 1 .52 1.71 2.43 6.1 8.87 10.04.71.43.93 1.36.5 2.06-.28.46-.78.72-1.28.72z" fill="#3e8a46"/><path d="m76.25 25.4c1.71-.12 3.04-.17 4.76-.17.42 0 .77.34.77.74l-.04 18.41c0 .41-.34.74-.77.74-1.71 0-3.04-.07-4.76-.19-2.96-.21-5.28-2.49-5.49-5.34s-.22-5.93.02-8.89 2.56-5.12 5.51-5.31z" fill="#708ff6"/><path d="m77.17 28.52c1.27-.08 1.7-.13 3.45-.13.64 0 1.15.43 1.15.96l-.02 9.84c0 .53-.52.96-1.16.96-1.76-.01-2.19-.06-3.45-.15-1.4-.1-2.52-.95-2.65-2.02-.25-1.97-.24-5.48.01-7.44.14-1.07 1.26-1.92 2.66-2.01z" fill="#baccfa"/><path d="m137.4 33.23c0-4.25-.17-6.06-.73-9.48-.78-4.76-4.45-8.39-9.33-9.32-3.95-.76-13.67-1.09-20.44-1.09s-16.49.33-20.44 1.09c-4.88.93-8.55 4.57-9.33 9.32-.56 3.41-.73 5.23-.73 9.48 0 4.25.17 6.06.73 9.48.78 4.76 4.45 8.39 9.33 9.32 3.95.76 13.67 1.09 20.44 1.09s16.49-.33 20.44-1.09c4.88-.93 8.55-4.57 9.33-9.32.56-3.41.73-5.23.73-9.48z" fill="#708ff6"/><path d="m104.79 40.51h-9.27c-4.58.02-7.57-2.46-8.3-5.73-.69-3.09-.61-5.21-.28-8.62.26-2.76 2.34-3.94 4.78-3.95l15.73-.03c2.44 0 4.42 1.97 4.43 4.41v6.27c0 4.97-2.51 7.64-7.09 7.65z" fill="#baccfa"/><path d="m94.18 32.65h-2c-1.07 0-1.93.78-1.93 1.73s.87 1.72 1.93 1.72h2c1.07 0 1.93-.78 1.93-1.73s-.87-1.72-1.93-1.72z" fill="#708ff6"/><path d="m103.57 32.63h-2c-1.07 0-1.93.78-1.93 1.73s.87 1.72 1.93 1.72h2c1.07 0 1.93-.78 1.93-1.73s-.87-1.72-1.93-1.72z" fill="#708ff6"/><circle cx="117.05" cy="28.14" r="2.65"/><circle cx="81.75" cy="28.14" r="2.65"/><path d="m115.36 47.44c-1.76.5-3.56.13-4.87-.6-1.29-.72-2.11-1.78-1.98-2.71.22-1.57 8.02-4.26 9.74-3.71.66.21 1.02.88 1.09 1.75.13 1.82-1.11 4.46-3.98 5.28z" fill="#d8549a"/><path d="m138.93 25.4c-1.71-.12-3.04-.17-4.76-.17-.42 0-.77.34-.77.74l.04 18.41c0 .41.34.74.77.74 1.71 0 3.04-.07 4.76-.19 2.96-.21 5.28-2.49 5.49-5.34.23-2.96.22-5.93-.02-8.89s-2.56-5.12-5.51-5.31z" fill="#708ff6"/><path d="m138.02 28.52c-1.27-.08-1.7-.13-3.45-.13-.64 0-1.15.43-1.15.96l.02 9.84c0 .53.52.96 1.16.96 1.76-.01 2.19-.06 3.45-.15 1.4-.1 2.52-.95 2.65-2.02.25-1.97.24-5.48-.01-7.44-.14-1.07-1.26-1.92-2.66-2.01z" fill="#baccfa"/><path d="m115.36 47.44c-1.76.5-3.56.13-4.87-.6 1.08-1.28 2.75-2.52 4.78-3.44 1.4-.64 2.79-1.05 4.07-1.23.13 1.82-1.11 4.46-3.98 5.28z" fill="#f3b1d4"/><path d="m158.69 74.17c-1.75 2.04-7.03 3.95-10.73 5.1-1.82.56-3.61-.97-3.33-2.86.57-3.83 1.65-9.34 3.4-11.38 2.78-3.25 7.42-3.83 10.37-1.31s3.08 7.2.29 10.44z" fill="#708ff6"/><path d="m170.11 84.65 6.88-17.42 4.84-12.25 6.84-17.44 6.9 2.71 5.58 15.75-9.37 23.7-14.83 7.68z" fill="#226b9c"/><path d="m189.52 39.49 4.87 1.91 5.16 14.57-2.06 5.2-4.84 12.25-2.06 5.2-13.72 7.1-4.81-1.92 6.32-16.03 4.84-12.26 6.29-16.04m-1.7-3.9-7.39 18.84-4.84 12.25-7.43 18.82 8.87 3.54 15.95-8.26 2.47-6.25 4.84-12.25 2.47-6.25-6-16.93-8.95-3.51z" fill="#3b2925"/><path d="m200.07 57.79-15.86-6.27" fill="#5e403b"/><path d="m190.64 46.13h3v17.05h-3z" fill="#2e1f1c" transform="matrix(.36747536 -.93003326 .93003326 .36747536 70.7 213.26)"/><path d="m192.22 77.66-15.86-6.27" fill="#5e403b"/><path d="m182.79 66h3v17.05h-3z" fill="#2e1f1c" transform="matrix(.36747536 -.93003326 .93003326 .36747536 47.25 218.53)"/><path d="m65.04 85.52h68.89v39.48h-68.89z" fill="url(#c)"/><g fill="#fff"><path d="m102.78 101.48h8.28v8.28h-8.28z" transform="matrix(.70710678 -.70710678 .70710678 .70710678 -43.36 106.54)"/><path d="m94.86 93.56h8.28v8.28h-8.28z" transform="matrix(.70710678 -.70710678 .70710678 .70710678 -40.08 98.62)"/><path d="m86.94 101.48h8.28v8.28h-8.28z" transform="matrix(.70710678 -.70710678 .70710678 .70710678 -48 95.34)"/><path d="m94.86 109.4h8.28v8.28h-8.28z" transform="matrix(.70710678 -.70710678 .70710678 .70710678 -51.28 103.26)"/><path d="m87.85 91.96h2.92v7.93h-2.92z" transform="matrix(.70710678 -.70710678 .70710678 .70710678 -41.67 91.25)"/><path d="m104.72 94.46h7.93v2.92h-7.93z" transform="matrix(.70710678 -.70710678 .70710678 .70710678 -35.99 104.95)"/><path d="m85.34 113.84h7.93v2.92h-7.93z" transform="matrix(.70710678 -.70710678 .70710678 .70710678 -55.37 96.92)"/><path d="m107.23 111.34h2.92v7.93h-2.92z" transform="matrix(.70710678 -.70710678 .70710678 .70710678 -49.7 110.63)"/></g><path d="m135.42 123.5v-36.49l31.24-.01.02 36.5z" fill="#226b9c"/><path d="m165.16 88.5.02 33.5h-28.26v-33.49l28.24-.02m3-3-34.24.02v39.48h34.27l-.02-39.5z" fill="#b8c1e3"/><path d="m66.99 113.34h69.08v4.17h-69.08z" fill="#5e403b"/><path d="m78.41 87.78h3v37.22h-3z" fill="#4a322e"/><path d="m119.74 87.78h3v37.22h-3z" fill="#4a322e"/><path d="m141.71 87.78h3v37.22h-3z" fill="#2e1f1c"/><path d="m157.84 87.7h3v37.22h-3z" fill="#2e1f1c"/><path d="m104.1 94.23h-10.2l-1-7.1h12.2z" fill="#5e403b"/><path d="m136.07 113.34h30.1v4.17h-30.1z" fill="#3b2925"/><path d="m165.16 88.5.02 33.5h-28.26v-33.49l28.24-.02m3-3-34.24.02v39.48h34.27l-.02-39.5z" fill="#3b2824"/><rect fill="#5e403b" height="4.76" rx="1.12" width="5.15" x="62.83" y="85.51"/><rect fill="#5e403b" height="4.76" rx="1.12" width="5.15" x="62.83" y="120.24"/><rect fill="#3b2824" height="4.76" rx="1.12" width="5.15" x="133.82" y="85.51"/><rect fill="#3b2824" height="4.76" rx="1.12" width="5.15" x="133.82" y="120.24"/><rect fill="#5e403b" height="4.76" rx="1.12" width="5.15" x="130.97" y="85.51"/><rect fill="#5e403b" height="4.76" rx="1.12" width="5.15" x="130.97" y="120.24"/><path d="m61.16 75.95c-2.39-1.54-4-4.03-4.42-6.85l-.72-4.79c-.04-.24-.24-.41-.48-.41-.24 0-.44.17-.48.41l-.72 4.79c-.42 2.81-2.03 5.31-4.42 6.85l-.62.4c-.14.09-.22.24-.22.4v.03c0 .16.08.32.22.4l.62.4c2.39 1.54 4 4.03 4.42 6.85l.72 4.79c.04.24.24.41.48.41.24 0 .44-.17.48-.41l.72-4.79c.42-2.81 2.03-5.31 4.42-6.85l.62-.4c.14-.09.22-.24.22-.4v-.03c0-.16-.08-.32-.22-.4z" fill="#91ffac"/><path d="m169.73 57.59c-1.54-.99-2.57-2.59-2.84-4.4l-.46-3.07c-.02-.15-.15-.26-.31-.26-.15 0-.28.11-.31.26l-.46 3.07c-.27 1.81-1.31 3.41-2.84 4.4l-.4.26c-.09.06-.14.15-.14.26v.02c0 .11.05.2.14.26l.4.26c1.54.99 2.57 2.59 2.84 4.4l.46 3.07c.02.15.15.26.31.26.15 0 .28-.11.31-.26l.46-3.07c.27-1.81 1.31-3.41 2.84-4.4l.4-.26c.09-.06.14-.15.14-.26v-.02c0-.11-.05-.2-.14-.26z" fill="#ffe65c"/><path d="m44.68 68.25c-1.1-.71-1.84-1.86-2.03-3.15l-.33-2.2c-.02-.11-.11-.19-.22-.19-.11 0-.2.08-.22.19l-.33 2.2c-.19 1.29-.93 2.44-2.03 3.15l-.29.18c-.06.04-.1.11-.1.19 0 .09.04.16.1.2l.29.18c1.1.71 1.84 1.86 2.03 3.15l.33 2.2c.02.11.11.19.22.19.11 0 .2-.08.22-.19l.33-2.2c.19-1.29.93-2.44 2.03-3.15l.29-.18c.06-.04.1-.11.1-.19 0-.09-.04-.16-.1-.2z" fill="#5865f2"/><path d="m180 31.53c-2.27-1.46-3.81-3.84-4.21-6.51l-.68-4.55c-.03-.22-.23-.39-.45-.39-.23 0-.42.17-.45.39l-.68 4.55c-.4 2.67-1.93 5.05-4.21 6.51l-.59.38c-.13.08-.21.23-.21.38v.03c0 .16.08.3.21.38l.59.38c2.27 1.46 3.81 3.84 4.21 6.51l.68 4.55c.03.22.23.39.45.39.23 0 .42-.17.45-.39l.68-4.55c.4-2.67 1.93-5.05 4.21-6.51l.59-.38c.13-.08.21-.23.21-.38v-.03c0-.16-.08-.3-.21-.38z" fill="#fc78b6"/><path d="m130.92 88.52v33.48h-62.89v-33.48zm3-3h-68.88v39.48h68.89v-39.48z" fill="#5e403b"/><path d="m99.62 90.39c.51-.24.87-.75.87-1.35 0-.82-.67-1.49-1.49-1.49s-1.49.67-1.49 1.49c0 .6.36 1.11.87 1.35l-.73 1.52c-.16.33.08.71.45.71h1.81c.37 0 .61-.38.45-.71l-.73-1.52z"/><path d="m189.52 39.49 4.87 1.91 5.16 14.57-2.06 5.2-4.84 12.25-2.06 5.2-13.72 7.1-4.81-1.92 6.32-16.03 4.84-12.26 6.29-16.04m-1.7-3.9-7.39 18.84-4.84 12.25-7.43 18.82 8.87 3.54 15.95-8.26 2.47-6.25 4.84-12.25 2.47-6.25-6-16.93-8.95-3.51z" fill="#3b2925"/></svg>